%TF.GenerationSoftware,KiCad,Pcbnew,8.0.5*%
%TF.CreationDate,2024-10-07T08:20:55+01:00*%
%TF.ProjectId,GPS Rx PPS,47505320-5278-4205-9050-532e6b696361,0.1*%
%TF.SameCoordinates,Original*%
%TF.FileFunction,Soldermask,Bot*%
%TF.FilePolarity,Negative*%
%FSLAX46Y46*%
G04 Gerber Fmt 4.6, Leading zero omitted, Abs format (unit mm)*
G04 Created by KiCad (PCBNEW 8.0.5) date 2024-10-07 08:20:55*
%MOMM*%
%LPD*%
G01*
G04 APERTURE LIST*
%ADD10R,1.700000X1.700000*%
%ADD11O,1.700000X1.700000*%
%ADD12C,1.600000*%
%ADD13O,1.600000X1.600000*%
%ADD14O,1.200000X1.600000*%
%ADD15O,1.200000X1.200000*%
%ADD16R,1.600000X1.600000*%
%ADD17C,1.620000*%
%ADD18R,2.000000X2.000000*%
%ADD19C,2.000000*%
%ADD20R,2.400000X1.600000*%
%ADD21O,2.400000X1.600000*%
G04 APERTURE END LIST*
D10*
%TO.C,CON2*%
X122600000Y-99300000D03*
D11*
X122600000Y-101840000D03*
%TD*%
D10*
%TO.C,CON3*%
X122600000Y-107500000D03*
D11*
X122600000Y-110040000D03*
%TD*%
D12*
%TO.C,R6*%
X145845000Y-108400000D03*
D13*
X143305000Y-108400000D03*
%TD*%
D14*
%TO.C,Q2*%
X148915276Y-94414724D03*
D15*
X147645276Y-95684724D03*
X148915276Y-96954724D03*
%TD*%
D12*
%TO.C,R4*%
X127400000Y-110045000D03*
D13*
X127400000Y-107505000D03*
%TD*%
D16*
%TO.C,C1*%
X127600000Y-90100000D03*
D12*
X127600000Y-92100000D03*
%TD*%
%TO.C,R9*%
X145845000Y-111600000D03*
D13*
X143305000Y-111600000D03*
%TD*%
D10*
%TO.C,CON1*%
X122600000Y-90100000D03*
D11*
X122600000Y-92640000D03*
%TD*%
D10*
%TO.C,J1*%
X153300000Y-115400000D03*
D11*
X153300000Y-117940000D03*
%TD*%
D12*
%TO.C,R10*%
X143100000Y-115400000D03*
D13*
X143100000Y-117940000D03*
%TD*%
D10*
%TO.C,CON4*%
X130100000Y-82500000D03*
D11*
X132640000Y-82500000D03*
%TD*%
D17*
%TO.C,RV1*%
X163200000Y-92300000D03*
X165700000Y-97300000D03*
X168200000Y-92300000D03*
%TD*%
D16*
%TO.C,C7*%
X152200000Y-101500000D03*
D12*
X152200000Y-104000000D03*
%TD*%
%TO.C,R5*%
X144700000Y-82255000D03*
D13*
X144700000Y-84795000D03*
%TD*%
D12*
%TO.C,R3*%
X144700000Y-89845000D03*
D13*
X144700000Y-87305000D03*
%TD*%
D16*
%TO.C,C4*%
X138200000Y-90700000D03*
D12*
X140200000Y-90700000D03*
%TD*%
%TO.C,R1*%
X127400000Y-99200000D03*
D13*
X127400000Y-101740000D03*
%TD*%
D12*
%TO.C,C5*%
X159800000Y-93300000D03*
X154800000Y-93300000D03*
%TD*%
%TO.C,C6*%
X145800000Y-105300000D03*
X143300000Y-105300000D03*
%TD*%
D18*
%TO.C,LS1*%
X162600000Y-103200000D03*
D19*
X162600000Y-108200000D03*
%TD*%
D12*
%TO.C,R2*%
X133100000Y-89600000D03*
D13*
X133100000Y-87060000D03*
%TD*%
D12*
%TO.C,C2*%
X142800000Y-94600000D03*
X142800000Y-97100000D03*
%TD*%
%TO.C,R11*%
X147800000Y-115400000D03*
D13*
X147800000Y-117940000D03*
%TD*%
D10*
%TO.C,CON5*%
X136225000Y-116400000D03*
D11*
X138765000Y-116400000D03*
%TD*%
D12*
%TO.C,R8*%
X130200000Y-117440000D03*
D13*
X130200000Y-114900000D03*
%TD*%
D15*
%TO.C,Q1*%
X138215276Y-85954724D03*
X136945276Y-84684724D03*
D14*
X138215276Y-83414724D03*
%TD*%
D10*
%TO.C,CON7*%
X166100000Y-104300000D03*
D11*
X166100000Y-106840000D03*
%TD*%
D12*
%TO.C,C3*%
X161200000Y-81800000D03*
X161200000Y-84300000D03*
%TD*%
%TO.C,R7*%
X143755000Y-102200000D03*
D13*
X146295000Y-102200000D03*
%TD*%
D10*
%TO.C,CON6*%
X158560000Y-116400000D03*
D11*
X161100000Y-116400000D03*
%TD*%
D20*
%TO.C,U1*%
X150375000Y-82300000D03*
D21*
X150375000Y-84840000D03*
X150375000Y-87380000D03*
X150375000Y-89920000D03*
X157995000Y-89920000D03*
X157995000Y-87380000D03*
X157995000Y-84840000D03*
X157995000Y-82300000D03*
%TD*%
D20*
%TO.C,U2*%
X132080000Y-95660000D03*
D21*
X132080000Y-98200000D03*
X132080000Y-100740000D03*
X132080000Y-103280000D03*
X132080000Y-105820000D03*
X132080000Y-108360000D03*
X132080000Y-110900000D03*
X139700000Y-110900000D03*
X139700000Y-108360000D03*
X139700000Y-105820000D03*
X139700000Y-103280000D03*
X139700000Y-100740000D03*
X139700000Y-98200000D03*
X139700000Y-95660000D03*
%TD*%
M02*
