M48
; DRILL file {KiCad 8.0.5} date 2024-10-07T08:19:43+0100
; FORMAT={-:-/ absolute / metric / decimal}
; #@! TF.CreationDate,2024-10-07T08:19:43+01:00
; #@! TF.GenerationSoftware,Kicad,Pcbnew,8.0.5
; #@! TF.FileFunction,Plated,1,2,PTH
FMAT,2
METRIC
; #@! TA.AperFunction,Plated,PTH,ViaDrill
T1C0.300
; #@! TA.AperFunction,Plated,PTH,ComponentDrill
T2C0.700
; #@! TA.AperFunction,Plated,PTH,ComponentDrill
T3C0.800
; #@! TA.AperFunction,Plated,PTH,ComponentDrill
T4C0.900
; #@! TA.AperFunction,Plated,PTH,ComponentDrill
T5C1.000
%
G90
G05
T1
X129.5Y-94.1
T2
X136.945Y-84.685
X138.215Y-83.415
X138.215Y-85.955
X147.645Y-95.685
X148.915Y-94.415
X148.915Y-96.955
T3
X127.4Y-99.2
X127.4Y-101.74
X127.4Y-107.505
X127.4Y-110.045
X127.6Y-90.1
X127.6Y-92.1
X130.2Y-114.9
X130.2Y-117.44
X132.08Y-95.66
X132.08Y-98.2
X132.08Y-100.74
X132.08Y-103.28
X132.08Y-105.82
X132.08Y-108.36
X132.08Y-110.9
X133.1Y-87.06
X133.1Y-89.6
X138.2Y-90.7
X139.7Y-95.66
X139.7Y-98.2
X139.7Y-100.74
X139.7Y-103.28
X139.7Y-105.82
X139.7Y-108.36
X139.7Y-110.9
X140.2Y-90.7
X142.8Y-94.6
X142.8Y-97.1
X143.1Y-115.4
X143.1Y-117.94
X143.3Y-105.3
X143.305Y-108.4
X143.305Y-111.6
X143.755Y-102.2
X144.7Y-82.255
X144.7Y-84.795
X144.7Y-87.305
X144.7Y-89.845
X145.8Y-105.3
X145.845Y-108.4
X145.845Y-111.6
X146.295Y-102.2
X147.8Y-115.4
X147.8Y-117.94
X150.375Y-82.3
X150.375Y-84.84
X150.375Y-87.38
X150.375Y-89.92
X152.2Y-101.5
X152.2Y-104.0
X154.8Y-93.3
X157.995Y-82.3
X157.995Y-84.84
X157.995Y-87.38
X157.995Y-89.92
X159.8Y-93.3
X161.2Y-81.8
X161.2Y-84.3
T4
X163.2Y-92.3
X165.7Y-97.3
X168.2Y-92.3
T5
X122.6Y-90.1
X122.6Y-92.64
X122.6Y-99.3
X122.6Y-101.84
X122.6Y-107.5
X122.6Y-110.04
X130.1Y-82.5
X132.64Y-82.5
X136.225Y-116.4
X138.765Y-116.4
X153.3Y-115.4
X153.3Y-117.94
X158.56Y-116.4
X161.1Y-116.4
X162.6Y-103.2
X162.6Y-108.2
X166.1Y-104.3
X166.1Y-106.84
M30
