%TF.GenerationSoftware,KiCad,Pcbnew,8.0.5*%
%TF.CreationDate,2024-10-07T08:20:55+01:00*%
%TF.ProjectId,GPS Rx PPS,47505320-5278-4205-9050-532e6b696361,0.1*%
%TF.SameCoordinates,Original*%
%TF.FileFunction,Copper,L2,Bot*%
%TF.FilePolarity,Positive*%
%FSLAX46Y46*%
G04 Gerber Fmt 4.6, Leading zero omitted, Abs format (unit mm)*
G04 Created by KiCad (PCBNEW 8.0.5) date 2024-10-07 08:20:55*
%MOMM*%
%LPD*%
G01*
G04 APERTURE LIST*
%TA.AperFunction,Conductor*%
%ADD10C,0.200000*%
%TD*%
%TA.AperFunction,ComponentPad*%
%ADD11R,1.700000X1.700000*%
%TD*%
%TA.AperFunction,ComponentPad*%
%ADD12O,1.700000X1.700000*%
%TD*%
%TA.AperFunction,ComponentPad*%
%ADD13C,1.600000*%
%TD*%
%TA.AperFunction,ComponentPad*%
%ADD14O,1.600000X1.600000*%
%TD*%
%TA.AperFunction,ComponentPad*%
%ADD15O,1.200000X1.600000*%
%TD*%
%TA.AperFunction,ComponentPad*%
%ADD16O,1.200000X1.200000*%
%TD*%
%TA.AperFunction,ComponentPad*%
%ADD17R,1.600000X1.600000*%
%TD*%
%TA.AperFunction,ComponentPad*%
%ADD18C,1.620000*%
%TD*%
%TA.AperFunction,ComponentPad*%
%ADD19R,2.000000X2.000000*%
%TD*%
%TA.AperFunction,ComponentPad*%
%ADD20C,2.000000*%
%TD*%
%TA.AperFunction,ComponentPad*%
%ADD21R,2.400000X1.600000*%
%TD*%
%TA.AperFunction,ComponentPad*%
%ADD22O,2.400000X1.600000*%
%TD*%
%TA.AperFunction,ViaPad*%
%ADD23C,0.600000*%
%TD*%
G04 APERTURE END LIST*
D10*
%TO.N,Net-(Q1-B)*%
X133100000Y-87100000D02*
X133150000Y-87100000D01*
X133200000Y-87100000D02*
X133100000Y-87100000D01*
%TO.N,Net-(C7-Pad1)*%
X165700000Y-99300000D02*
X165700000Y-97300000D01*
X152400000Y-101500000D02*
X163500000Y-101500000D01*
%TO.N,Net-(R8-Pad2)*%
X130200000Y-114700000D02*
X130200000Y-107500000D01*
%TO.N,Net-(Q1-C)*%
X141700000Y-87300000D02*
X144700000Y-87300000D01*
%TO.N,Net-(C7-Pad1)*%
X163500000Y-101500000D02*
X165700000Y-99300000D01*
%TO.N,Net-(RV1-Pad1)*%
X141100000Y-99300000D02*
X160300000Y-99300000D01*
%TO.N,~{ALARM}*%
X145200000Y-82300000D02*
X144700000Y-82300000D01*
%TO.N,Net-(Q2-B)*%
X146500000Y-85400000D02*
X146500000Y-94500000D01*
%TO.N,Net-(CON7-Pin_1)*%
X152200000Y-104000000D02*
X156000000Y-104000000D01*
%TO.N,Net-(R10-Pad1)*%
X136000000Y-109300000D02*
X136000000Y-112300000D01*
%TO.N,Net-(CON7-Pin_1)*%
X163700000Y-104300000D02*
X166100000Y-104300000D01*
%TO.N,Net-(R10-Pad1)*%
X136013189Y-112363189D02*
X137250000Y-113600000D01*
%TO.N,Net-(RV1-Pad1)*%
X163200000Y-96400000D02*
X163200000Y-92300000D01*
%TO.N,~{ALARM}*%
X129500000Y-94100000D02*
X129500000Y-105400000D01*
%TO.N,Net-(RV1-Pad1)*%
X160300000Y-99300000D02*
X163173345Y-96426655D01*
X139700000Y-100700000D02*
X141100000Y-99300000D01*
%TO.N,Net-(Q1-C)*%
X140352815Y-86000000D02*
X141647185Y-87294370D01*
%TO.N,Net-(CON2-Pin_1)*%
X122600000Y-99200000D02*
X127400000Y-99200000D01*
%TO.N,Net-(Q1-C)*%
X150400000Y-84800000D02*
X152800000Y-84800000D01*
%TO.N,Net-(CON7-Pin_1)*%
X162600000Y-103200000D02*
X163695135Y-104295135D01*
%TO.N,Net-(Q2-B)*%
X144700000Y-84800000D02*
X145900000Y-84800000D01*
%TO.N,Net-(CON7-Pin_1)*%
X156000000Y-104000000D02*
X156802680Y-103197320D01*
X156800000Y-103200000D02*
X162600000Y-103200000D01*
%TO.N,Net-(Q2-B)*%
X145900000Y-84800000D02*
X146500000Y-85400000D01*
%TO.N,Net-(R10-Pad1)*%
X141300000Y-113600000D02*
X143100000Y-115400000D01*
%TO.N,Net-(Q1-C)*%
X152809500Y-84809500D02*
X155398794Y-87398794D01*
X138250000Y-86000000D02*
X140300000Y-86000000D01*
%TO.N,~{ALARM}*%
X129500000Y-105400000D02*
X127400000Y-107500000D01*
%TO.N,Net-(R10-Pad1)*%
X137300000Y-113600000D02*
X141300000Y-113600000D01*
%TO.N,~{ALARM}*%
X150300000Y-87400000D02*
X145200000Y-82300000D01*
%TO.N,Net-(Q2-B)*%
X146500000Y-94500000D02*
X147700000Y-95700000D01*
%TO.N,Net-(Q1-C)*%
X155400000Y-87400000D02*
X158100000Y-87400000D01*
%TD*%
D11*
%TO.P,CON2,1,Pin_1*%
%TO.N,Net-(CON2-Pin_1)*%
X122600000Y-99300000D03*
D12*
%TO.P,CON2,2,Pin_2*%
%TO.N,GND*%
X122600000Y-101840000D03*
%TD*%
D11*
%TO.P,CON3,1,Pin_1*%
%TO.N,+5V*%
X122600000Y-107500000D03*
D12*
%TO.P,CON3,2,Pin_2*%
%TO.N,Net-(CON3-Pin_2)*%
X122600000Y-110040000D03*
%TD*%
D13*
%TO.P,R6,1*%
%TO.N,Net-(C6-Pad1)*%
X145845000Y-108400000D03*
D14*
%TO.P,R6,2*%
%TO.N,Net-(R6-Pad2)*%
X143305000Y-108400000D03*
%TD*%
D15*
%TO.P,Q2,1,E*%
%TO.N,GND*%
X148915276Y-94414724D03*
D16*
%TO.P,Q2,2,B*%
%TO.N,Net-(Q2-B)*%
X147645276Y-95684724D03*
%TO.P,Q2,3,C*%
%TO.N,Net-(Q2-C)*%
X148915276Y-96954724D03*
%TD*%
D13*
%TO.P,R4,1*%
%TO.N,Net-(CON3-Pin_2)*%
X127400000Y-110045000D03*
D14*
%TO.P,R4,2*%
%TO.N,~{ALARM}*%
X127400000Y-107505000D03*
%TD*%
D17*
%TO.P,C1,1*%
%TO.N,+5V*%
X127600000Y-90100000D03*
D13*
%TO.P,C1,2*%
%TO.N,GND*%
X127600000Y-92100000D03*
%TD*%
%TO.P,R9,1*%
%TO.N,Net-(C6-Pad1)*%
X145845000Y-111600000D03*
D14*
%TO.P,R9,2*%
%TO.N,Net-(R9-Pad2)*%
X143305000Y-111600000D03*
%TD*%
D11*
%TO.P,CON1,1,Pin_1*%
%TO.N,+5V*%
X122600000Y-90100000D03*
D12*
%TO.P,CON1,2,Pin_2*%
%TO.N,GND*%
X122600000Y-92640000D03*
%TD*%
D11*
%TO.P,J1,1,Pin_1*%
%TO.N,Net-(J1-Pin_1)*%
X153300000Y-115400000D03*
D12*
%TO.P,J1,2,Pin_2*%
%TO.N,Net-(CON6-Pin_1)*%
X153300000Y-117940000D03*
%TD*%
D13*
%TO.P,R10,1*%
%TO.N,Net-(R10-Pad1)*%
X143100000Y-115400000D03*
D14*
%TO.P,R10,2*%
%TO.N,Net-(J1-Pin_1)*%
X143100000Y-117940000D03*
%TD*%
D11*
%TO.P,CON4,1,Pin_1*%
%TO.N,Net-(CON4-Pin_1)*%
X130100000Y-82500000D03*
D12*
%TO.P,CON4,2,Pin_2*%
%TO.N,GND*%
X132640000Y-82500000D03*
%TD*%
D18*
%TO.P,RV1,1,1*%
%TO.N,Net-(RV1-Pad1)*%
X163200000Y-92300000D03*
%TO.P,RV1,2,2*%
%TO.N,Net-(C7-Pad1)*%
X165700000Y-97300000D03*
%TO.P,RV1,3,3*%
%TO.N,GND*%
X168200000Y-92300000D03*
%TD*%
D17*
%TO.P,C7,1*%
%TO.N,Net-(C7-Pad1)*%
X152200000Y-101500000D03*
D13*
%TO.P,C7,2*%
%TO.N,Net-(CON7-Pin_1)*%
X152200000Y-104000000D03*
%TD*%
%TO.P,R5,1*%
%TO.N,~{ALARM}*%
X144700000Y-82255000D03*
D14*
%TO.P,R5,2*%
%TO.N,Net-(Q2-B)*%
X144700000Y-84795000D03*
%TD*%
D13*
%TO.P,R3,1*%
%TO.N,+5V*%
X144700000Y-89845000D03*
D14*
%TO.P,R3,2*%
%TO.N,Net-(Q1-C)*%
X144700000Y-87305000D03*
%TD*%
D17*
%TO.P,C4,1*%
%TO.N,Net-(Q1-C)*%
X138200000Y-90700000D03*
D13*
%TO.P,C4,2*%
%TO.N,GND*%
X140200000Y-90700000D03*
%TD*%
%TO.P,R1,1*%
%TO.N,Net-(CON2-Pin_1)*%
X127400000Y-99200000D03*
D14*
%TO.P,R1,2*%
%TO.N,+5V*%
X127400000Y-101740000D03*
%TD*%
D13*
%TO.P,C5,1*%
%TO.N,Net-(U1-CV)*%
X159800000Y-93300000D03*
%TO.P,C5,2*%
%TO.N,GND*%
X154800000Y-93300000D03*
%TD*%
%TO.P,C6,1*%
%TO.N,Net-(C6-Pad1)*%
X145800000Y-105300000D03*
%TO.P,C6,2*%
%TO.N,Net-(C6-Pad2)*%
X143300000Y-105300000D03*
%TD*%
D19*
%TO.P,LS1,1,1*%
%TO.N,Net-(CON7-Pin_1)*%
X162600000Y-103200000D03*
D20*
%TO.P,LS1,2,2*%
%TO.N,GND*%
X162600000Y-108200000D03*
%TD*%
D13*
%TO.P,R2,1*%
%TO.N,PPS*%
X133100000Y-89600000D03*
D14*
%TO.P,R2,2*%
%TO.N,Net-(Q1-B)*%
X133100000Y-87060000D03*
%TD*%
D13*
%TO.P,C2,1*%
%TO.N,+5V*%
X142800000Y-94600000D03*
%TO.P,C2,2*%
%TO.N,GND*%
X142800000Y-97100000D03*
%TD*%
%TO.P,R11,1*%
%TO.N,Net-(J1-Pin_1)*%
X147800000Y-115400000D03*
D14*
%TO.P,R11,2*%
%TO.N,Net-(CON6-Pin_1)*%
X147800000Y-117940000D03*
%TD*%
D11*
%TO.P,CON5,1,Pin_1*%
%TO.N,Net-(CON5-Pin_1)*%
X136225000Y-116400000D03*
D12*
%TO.P,CON5,2,Pin_2*%
%TO.N,GND*%
X138765000Y-116400000D03*
%TD*%
D13*
%TO.P,R8,1*%
%TO.N,Net-(CON5-Pin_1)*%
X130200000Y-117440000D03*
D14*
%TO.P,R8,2*%
%TO.N,Net-(R8-Pad2)*%
X130200000Y-114900000D03*
%TD*%
D16*
%TO.P,Q1,3,C*%
%TO.N,Net-(Q1-C)*%
X138215276Y-85954724D03*
%TO.P,Q1,2,B*%
%TO.N,Net-(Q1-B)*%
X136945276Y-84684724D03*
D15*
%TO.P,Q1,1,E*%
%TO.N,GND*%
X138215276Y-83414724D03*
%TD*%
D11*
%TO.P,CON7,1,Pin_1*%
%TO.N,Net-(CON7-Pin_1)*%
X166100000Y-104300000D03*
D12*
%TO.P,CON7,2,Pin_2*%
%TO.N,GND*%
X166100000Y-106840000D03*
%TD*%
D13*
%TO.P,C3,1*%
%TO.N,+5V*%
X161200000Y-81800000D03*
%TO.P,C3,2*%
%TO.N,GND*%
X161200000Y-84300000D03*
%TD*%
%TO.P,R7,1*%
%TO.N,Net-(R6-Pad2)*%
X143755000Y-102200000D03*
D14*
%TO.P,R7,2*%
%TO.N,Net-(Q2-C)*%
X146295000Y-102200000D03*
%TD*%
D11*
%TO.P,CON6,1,Pin_1*%
%TO.N,Net-(CON6-Pin_1)*%
X158560000Y-116400000D03*
D12*
%TO.P,CON6,2,Pin_2*%
%TO.N,GND*%
X161100000Y-116400000D03*
%TD*%
D21*
%TO.P,U1,1,GND*%
%TO.N,GND*%
X150375000Y-82300000D03*
D22*
%TO.P,U1,2,TR*%
%TO.N,Net-(Q1-C)*%
X150375000Y-84840000D03*
%TO.P,U1,3,Q*%
%TO.N,~{ALARM}*%
X150375000Y-87380000D03*
%TO.P,U1,4,R*%
%TO.N,+5V*%
X150375000Y-89920000D03*
%TO.P,U1,5,CV*%
%TO.N,Net-(U1-CV)*%
X157995000Y-89920000D03*
%TO.P,U1,6,THR*%
%TO.N,Net-(Q1-C)*%
X157995000Y-87380000D03*
%TO.P,U1,7,DIS*%
%TO.N,unconnected-(U1-DIS-Pad7)*%
X157995000Y-84840000D03*
%TO.P,U1,8,VCC*%
%TO.N,+5V*%
X157995000Y-82300000D03*
%TD*%
D21*
%TO.P,U2,1*%
%TO.N,Net-(CON4-Pin_1)*%
X132080000Y-95660000D03*
D22*
%TO.P,U2,2*%
%TO.N,PPS*%
X132080000Y-98200000D03*
%TO.P,U2,3*%
%TO.N,Net-(CON4-Pin_1)*%
X132080000Y-100740000D03*
%TO.P,U2,4*%
%TO.N,Net-(R8-Pad2)*%
X132080000Y-103280000D03*
%TO.P,U2,5*%
%TO.N,Net-(CON4-Pin_1)*%
X132080000Y-105820000D03*
%TO.P,U2,6*%
%TO.N,Net-(R10-Pad1)*%
X132080000Y-108360000D03*
%TO.P,U2,7,GND*%
%TO.N,GND*%
X132080000Y-110900000D03*
%TO.P,U2,8*%
%TO.N,Net-(R9-Pad2)*%
X139700000Y-110900000D03*
%TO.P,U2,9*%
%TO.N,Net-(R6-Pad2)*%
X139700000Y-108360000D03*
%TO.P,U2,10*%
%TO.N,Net-(C6-Pad2)*%
X139700000Y-105820000D03*
%TO.P,U2,11*%
%TO.N,Net-(R9-Pad2)*%
X139700000Y-103280000D03*
%TO.P,U2,12*%
%TO.N,Net-(RV1-Pad1)*%
X139700000Y-100740000D03*
%TO.P,U2,13*%
%TO.N,Net-(C6-Pad2)*%
X139700000Y-98200000D03*
%TO.P,U2,14,VCC*%
%TO.N,+5V*%
X139700000Y-95660000D03*
%TD*%
D23*
%TO.N,~{ALARM}*%
X129500000Y-94100000D03*
%TD*%
D10*
%TO.N,Net-(CON5-Pin_1)*%
X133500000Y-116400000D02*
X136225000Y-116400000D01*
X130200000Y-117440000D02*
X132460000Y-117440000D01*
X132460000Y-117440000D02*
X133500000Y-116400000D01*
%TO.N,PPS*%
X133900000Y-97700000D02*
X133400000Y-98200000D01*
X133100000Y-91200000D02*
X133900000Y-92000000D01*
X133900000Y-92000000D02*
X133900000Y-97700000D01*
X133400000Y-98200000D02*
X132080000Y-98200000D01*
X133100000Y-89600000D02*
X133100000Y-91200000D01*
%TO.N,Net-(Q1-B)*%
X133100000Y-87060000D02*
X135475276Y-84684724D01*
X135475276Y-84684724D02*
X136945276Y-84684724D01*
%TO.N,Net-(CON4-Pin_1)*%
X130200000Y-96100000D02*
X130640000Y-95660000D01*
X130660000Y-100740000D02*
X130200000Y-100280000D01*
X130200000Y-100280000D02*
X130200000Y-96100000D01*
X130640000Y-95660000D02*
X132080000Y-95660000D01*
X132080000Y-100740000D02*
X130660000Y-100740000D01*
X130820000Y-105820000D02*
X132080000Y-105820000D01*
X130200000Y-105200000D02*
X130820000Y-105820000D01*
X130660000Y-100740000D02*
X130200000Y-101200000D01*
X130200000Y-101200000D02*
X130200000Y-105200000D01*
%TO.N,Net-(R8-Pad2)*%
X133900000Y-106600000D02*
X133900000Y-103900000D01*
X133400000Y-107100000D02*
X133900000Y-106600000D01*
X133900000Y-103900000D02*
X133280000Y-103280000D01*
X130600000Y-107100000D02*
X133400000Y-107100000D01*
X130200000Y-107500000D02*
X130600000Y-107100000D01*
X133280000Y-103280000D02*
X132080000Y-103280000D01*
%TO.N,Net-(R10-Pad1)*%
X135060000Y-108360000D02*
X132080000Y-108360000D01*
%TO.N,Net-(CON4-Pin_1)*%
X132080000Y-105820000D02*
X132080000Y-105235635D01*
X132985685Y-96000000D02*
X132362842Y-95377157D01*
%TO.N,Net-(Q1-C)*%
X150400000Y-84865000D02*
X150375000Y-84840000D01*
X150400000Y-84900000D02*
X150400000Y-84865000D01*
X138200000Y-85783312D02*
X138200000Y-90400000D01*
%TO.N,Net-(U1-CV)*%
X159800000Y-93300000D02*
X159800000Y-91100000D01*
X158620000Y-89920000D02*
X157995000Y-89920000D01*
X159800000Y-91100000D02*
X158620000Y-89920000D01*
%TO.N,Net-(CON3-Pin_2)*%
X127395000Y-110040000D02*
X127400000Y-110045000D01*
X122600000Y-110040000D02*
X127395000Y-110040000D01*
%TO.N,Net-(CON4-Pin_1)*%
X130800000Y-94380000D02*
X132080000Y-95660000D01*
X130100000Y-82500000D02*
X130100000Y-87200000D01*
X130800000Y-87900000D02*
X130800000Y-94380000D01*
X130100000Y-87200000D02*
X130800000Y-87900000D01*
%TO.N,GND*%
X138700000Y-117900000D02*
X138700000Y-116465000D01*
X138700000Y-116465000D02*
X138765000Y-116400000D01*
%TO.N,Net-(CON6-Pin_1)*%
X147920000Y-117940000D02*
X147860000Y-118000000D01*
X158560000Y-116400000D02*
X157020000Y-117940000D01*
X157020000Y-117940000D02*
X153300000Y-117940000D01*
X153300000Y-117940000D02*
X147920000Y-117940000D01*
%TO.N,Net-(J1-Pin_1)*%
X143000000Y-117940000D02*
X145260000Y-117940000D01*
X153100000Y-115325000D02*
X147875000Y-115325000D01*
X145260000Y-117940000D02*
X147800000Y-115400000D01*
X147875000Y-115325000D02*
X147800000Y-115400000D01*
%TO.N,Net-(R8-Pad2)*%
X130900000Y-114805000D02*
X130500000Y-114405000D01*
%TO.N,Net-(R10-Pad1)*%
X135060000Y-108360000D02*
X136000000Y-109300000D01*
%TO.N,Net-(C6-Pad1)*%
X145800000Y-108355000D02*
X145845000Y-108400000D01*
X145845000Y-111600000D02*
X145845000Y-108400000D01*
X145800000Y-105300000D02*
X145800000Y-108355000D01*
%TO.N,Net-(C6-Pad2)*%
X143300000Y-105300000D02*
X140220000Y-105300000D01*
X139700000Y-98200000D02*
X138500000Y-98200000D01*
X138500000Y-98200000D02*
X137900000Y-98800000D01*
X138220000Y-105820000D02*
X139700000Y-105820000D01*
X137900000Y-98800000D02*
X137900000Y-105500000D01*
X140220000Y-105300000D02*
X139700000Y-105820000D01*
X137900000Y-105500000D02*
X138220000Y-105820000D01*
%TO.N,Net-(R6-Pad2)*%
X143305000Y-108400000D02*
X144000000Y-108400000D01*
X140100000Y-108360000D02*
X143265000Y-108360000D01*
X144600000Y-107800000D02*
X144600000Y-103045000D01*
X144600000Y-103045000D02*
X143755000Y-102200000D01*
X144000000Y-108400000D02*
X144600000Y-107800000D01*
X143265000Y-108360000D02*
X143305000Y-108400000D01*
%TO.N,Net-(R9-Pad2)*%
X140100000Y-110900000D02*
X142605000Y-110900000D01*
X142605000Y-110900000D02*
X143305000Y-111600000D01*
%TD*%
%TA.AperFunction,Conductor*%
%TO.N,GND*%
G36*
X160462287Y-80520185D02*
G01*
X160508042Y-80572989D01*
X160517986Y-80642147D01*
X160488961Y-80705703D01*
X160466371Y-80726075D01*
X160360858Y-80799954D01*
X160199954Y-80960858D01*
X160069432Y-81147265D01*
X160069431Y-81147267D01*
X159973261Y-81353502D01*
X159973258Y-81353511D01*
X159914366Y-81573302D01*
X159914364Y-81573313D01*
X159894532Y-81799998D01*
X159894532Y-81800002D01*
X159908485Y-81959488D01*
X159895898Y-82022112D01*
X159917547Y-82046386D01*
X159925275Y-82067410D01*
X159973259Y-82246491D01*
X159973261Y-82246497D01*
X160069431Y-82452732D01*
X160069432Y-82452734D01*
X160199954Y-82639141D01*
X160360858Y-82800045D01*
X160360861Y-82800047D01*
X160547266Y-82930568D01*
X160562975Y-82937893D01*
X160615414Y-82984064D01*
X160634567Y-83051257D01*
X160614352Y-83118138D01*
X160562979Y-83162656D01*
X160547514Y-83169867D01*
X160547512Y-83169868D01*
X160474526Y-83220973D01*
X160474526Y-83220974D01*
X161153553Y-83900000D01*
X161147339Y-83900000D01*
X161045606Y-83927259D01*
X160954394Y-83979920D01*
X160879920Y-84054394D01*
X160827259Y-84145606D01*
X160800000Y-84247339D01*
X160800000Y-84253552D01*
X160120974Y-83574526D01*
X160120973Y-83574526D01*
X160069868Y-83647512D01*
X160069866Y-83647516D01*
X159973734Y-83853673D01*
X159973730Y-83853682D01*
X159914860Y-84073389D01*
X159914858Y-84073400D01*
X159895034Y-84299997D01*
X159895034Y-84300002D01*
X159914858Y-84526599D01*
X159914860Y-84526610D01*
X159973730Y-84746317D01*
X159973735Y-84746331D01*
X160069863Y-84952478D01*
X160120974Y-85025472D01*
X160800000Y-84346446D01*
X160800000Y-84352661D01*
X160827259Y-84454394D01*
X160879920Y-84545606D01*
X160954394Y-84620080D01*
X161045606Y-84672741D01*
X161147339Y-84700000D01*
X161153553Y-84700000D01*
X160474526Y-85379025D01*
X160547513Y-85430132D01*
X160547521Y-85430136D01*
X160753668Y-85526264D01*
X160753682Y-85526269D01*
X160973389Y-85585139D01*
X160973400Y-85585141D01*
X161199998Y-85604966D01*
X161200002Y-85604966D01*
X161426599Y-85585141D01*
X161426610Y-85585139D01*
X161646317Y-85526269D01*
X161646331Y-85526264D01*
X161852478Y-85430136D01*
X161925471Y-85379024D01*
X161246447Y-84700000D01*
X161252661Y-84700000D01*
X161354394Y-84672741D01*
X161445606Y-84620080D01*
X161520080Y-84545606D01*
X161572741Y-84454394D01*
X161600000Y-84352661D01*
X161600000Y-84346447D01*
X162279024Y-85025471D01*
X162330136Y-84952478D01*
X162426264Y-84746331D01*
X162426269Y-84746317D01*
X162485139Y-84526610D01*
X162485141Y-84526599D01*
X162504966Y-84300002D01*
X162504966Y-84299997D01*
X162485141Y-84073400D01*
X162485139Y-84073389D01*
X162426269Y-83853682D01*
X162426264Y-83853668D01*
X162330136Y-83647521D01*
X162330132Y-83647513D01*
X162279025Y-83574526D01*
X161600000Y-84253551D01*
X161600000Y-84247339D01*
X161572741Y-84145606D01*
X161520080Y-84054394D01*
X161445606Y-83979920D01*
X161354394Y-83927259D01*
X161252661Y-83900000D01*
X161246448Y-83900000D01*
X161925472Y-83220974D01*
X161852480Y-83169864D01*
X161837024Y-83162657D01*
X161784585Y-83116484D01*
X161765433Y-83049290D01*
X161785649Y-82982409D01*
X161837023Y-82937893D01*
X161852734Y-82930568D01*
X162039139Y-82800047D01*
X162200047Y-82639139D01*
X162330568Y-82452734D01*
X162426739Y-82246496D01*
X162485635Y-82026692D01*
X162505468Y-81800000D01*
X162485635Y-81573308D01*
X162426739Y-81353504D01*
X162330568Y-81147266D01*
X162200047Y-80960861D01*
X162200045Y-80960858D01*
X162039141Y-80799954D01*
X161933629Y-80726075D01*
X161890004Y-80671499D01*
X161882810Y-80602001D01*
X161914332Y-80539646D01*
X161974562Y-80504231D01*
X162004752Y-80500500D01*
X162876000Y-80500500D01*
X162943039Y-80520185D01*
X162988794Y-80572989D01*
X163000000Y-80624500D01*
X163000000Y-87000000D01*
X169375500Y-87000000D01*
X169442539Y-87019685D01*
X169488294Y-87072489D01*
X169499500Y-87124000D01*
X169499500Y-91478685D01*
X169479815Y-91545724D01*
X169427011Y-91591479D01*
X169357853Y-91601423D01*
X169294297Y-91572398D01*
X169290044Y-91567682D01*
X169286205Y-91567346D01*
X168642137Y-92211414D01*
X168619333Y-92126306D01*
X168560090Y-92023694D01*
X168476306Y-91939910D01*
X168373694Y-91880667D01*
X168288585Y-91857862D01*
X168932652Y-91213794D01*
X168857499Y-91161171D01*
X168649759Y-91064301D01*
X168649750Y-91064297D01*
X168428353Y-91004975D01*
X168428343Y-91004973D01*
X168200001Y-90984996D01*
X168199999Y-90984996D01*
X167971656Y-91004973D01*
X167971646Y-91004975D01*
X167750249Y-91064297D01*
X167750240Y-91064301D01*
X167542502Y-91161171D01*
X167467346Y-91213794D01*
X168111414Y-91857861D01*
X168026306Y-91880667D01*
X167923694Y-91939910D01*
X167839910Y-92023694D01*
X167780667Y-92126306D01*
X167757862Y-92211414D01*
X167113794Y-91567346D01*
X167061171Y-91642502D01*
X166964301Y-91850240D01*
X166964297Y-91850249D01*
X166904975Y-92071646D01*
X166904973Y-92071656D01*
X166884996Y-92299999D01*
X166884996Y-92300000D01*
X166904973Y-92528343D01*
X166904975Y-92528353D01*
X166964297Y-92749750D01*
X166964301Y-92749759D01*
X167061171Y-92957499D01*
X167113794Y-93032652D01*
X167757861Y-92388584D01*
X167780667Y-92473694D01*
X167839910Y-92576306D01*
X167923694Y-92660090D01*
X168026306Y-92719333D01*
X168111414Y-92742137D01*
X167467346Y-93386205D01*
X167542494Y-93438825D01*
X167542498Y-93438827D01*
X167750240Y-93535698D01*
X167750249Y-93535702D01*
X167971646Y-93595024D01*
X167971656Y-93595026D01*
X168199999Y-93615004D01*
X168200001Y-93615004D01*
X168428343Y-93595026D01*
X168428353Y-93595024D01*
X168649750Y-93535702D01*
X168649759Y-93535698D01*
X168857503Y-93438826D01*
X168932651Y-93386204D01*
X168288585Y-92742138D01*
X168373694Y-92719333D01*
X168476306Y-92660090D01*
X168560090Y-92576306D01*
X168619333Y-92473694D01*
X168642138Y-92388585D01*
X169286204Y-93032652D01*
X169297050Y-93031703D01*
X169328503Y-93006563D01*
X169398002Y-92999371D01*
X169460356Y-93030894D01*
X169495769Y-93091124D01*
X169499500Y-93121312D01*
X169499500Y-112876000D01*
X169479815Y-112943039D01*
X169427011Y-112988794D01*
X169375500Y-113000000D01*
X163000000Y-113000000D01*
X163000000Y-119375500D01*
X162980315Y-119442539D01*
X162927511Y-119488294D01*
X162876000Y-119499500D01*
X153639672Y-119499500D01*
X153572633Y-119479815D01*
X153526878Y-119427011D01*
X153516934Y-119357853D01*
X153545959Y-119294297D01*
X153604737Y-119256523D01*
X153607579Y-119255725D01*
X153719878Y-119225635D01*
X153763663Y-119213903D01*
X153977830Y-119114035D01*
X154171401Y-118978495D01*
X154338495Y-118811401D01*
X154474035Y-118617830D01*
X154476707Y-118612097D01*
X154522878Y-118559658D01*
X154589091Y-118540500D01*
X156933331Y-118540500D01*
X156933347Y-118540501D01*
X156940943Y-118540501D01*
X157099054Y-118540501D01*
X157099057Y-118540501D01*
X157251785Y-118499577D01*
X157301904Y-118470639D01*
X157388716Y-118420520D01*
X157500520Y-118308716D01*
X157500520Y-118308714D01*
X157510728Y-118298507D01*
X157510730Y-118298504D01*
X158022416Y-117786818D01*
X158083739Y-117753333D01*
X158110097Y-117750499D01*
X159457871Y-117750499D01*
X159457872Y-117750499D01*
X159517483Y-117744091D01*
X159652331Y-117693796D01*
X159767546Y-117607546D01*
X159853796Y-117492331D01*
X159903002Y-117360401D01*
X159944872Y-117304468D01*
X160010337Y-117280050D01*
X160078610Y-117294901D01*
X160106865Y-117316053D01*
X160228917Y-117438105D01*
X160422421Y-117573600D01*
X160636507Y-117673429D01*
X160636516Y-117673433D01*
X160850000Y-117730634D01*
X160850000Y-116833012D01*
X160907007Y-116865925D01*
X161034174Y-116900000D01*
X161165826Y-116900000D01*
X161292993Y-116865925D01*
X161350000Y-116833012D01*
X161350000Y-117730633D01*
X161563483Y-117673433D01*
X161563492Y-117673429D01*
X161777578Y-117573600D01*
X161971082Y-117438105D01*
X162138105Y-117271082D01*
X162273600Y-117077578D01*
X162373429Y-116863492D01*
X162373432Y-116863486D01*
X162430636Y-116650000D01*
X161533012Y-116650000D01*
X161565925Y-116592993D01*
X161600000Y-116465826D01*
X161600000Y-116334174D01*
X161565925Y-116207007D01*
X161533012Y-116150000D01*
X162430636Y-116150000D01*
X162430635Y-116149999D01*
X162373432Y-115936513D01*
X162373429Y-115936507D01*
X162273600Y-115722422D01*
X162273599Y-115722420D01*
X162138113Y-115528926D01*
X162138108Y-115528920D01*
X161971082Y-115361894D01*
X161777578Y-115226399D01*
X161563492Y-115126570D01*
X161563486Y-115126567D01*
X161350000Y-115069364D01*
X161350000Y-115966988D01*
X161292993Y-115934075D01*
X161165826Y-115900000D01*
X161034174Y-115900000D01*
X160907007Y-115934075D01*
X160850000Y-115966988D01*
X160850000Y-115069364D01*
X160849999Y-115069364D01*
X160636513Y-115126567D01*
X160636507Y-115126570D01*
X160422422Y-115226399D01*
X160422420Y-115226400D01*
X160228926Y-115361886D01*
X160106865Y-115483947D01*
X160045542Y-115517431D01*
X159975850Y-115512447D01*
X159919917Y-115470575D01*
X159903002Y-115439598D01*
X159888233Y-115400001D01*
X159853796Y-115307669D01*
X159853795Y-115307668D01*
X159853793Y-115307664D01*
X159767547Y-115192455D01*
X159767544Y-115192452D01*
X159652335Y-115106206D01*
X159652328Y-115106202D01*
X159517482Y-115055908D01*
X159517483Y-115055908D01*
X159457883Y-115049501D01*
X159457881Y-115049500D01*
X159457873Y-115049500D01*
X159457864Y-115049500D01*
X157662129Y-115049500D01*
X157662123Y-115049501D01*
X157602516Y-115055908D01*
X157467671Y-115106202D01*
X157467664Y-115106206D01*
X157352455Y-115192452D01*
X157352452Y-115192455D01*
X157266206Y-115307664D01*
X157266202Y-115307671D01*
X157215908Y-115442517D01*
X157209501Y-115502116D01*
X157209500Y-115502135D01*
X157209500Y-116849902D01*
X157189815Y-116916941D01*
X157173181Y-116937583D01*
X156807584Y-117303181D01*
X156746261Y-117336666D01*
X156719903Y-117339500D01*
X154589091Y-117339500D01*
X154522052Y-117319815D01*
X154476711Y-117267909D01*
X154474037Y-117262175D01*
X154474034Y-117262170D01*
X154338496Y-117068600D01*
X154290081Y-117020185D01*
X154216567Y-116946671D01*
X154183084Y-116885351D01*
X154188068Y-116815659D01*
X154229939Y-116759725D01*
X154260915Y-116742810D01*
X154392331Y-116693796D01*
X154507546Y-116607546D01*
X154593796Y-116492331D01*
X154644091Y-116357483D01*
X154650500Y-116297873D01*
X154650499Y-114502128D01*
X154644091Y-114442517D01*
X154593796Y-114307669D01*
X154593795Y-114307668D01*
X154593793Y-114307664D01*
X154507547Y-114192455D01*
X154507544Y-114192452D01*
X154392335Y-114106206D01*
X154392328Y-114106202D01*
X154257482Y-114055908D01*
X154257483Y-114055908D01*
X154197883Y-114049501D01*
X154197881Y-114049500D01*
X154197873Y-114049500D01*
X154197864Y-114049500D01*
X152402129Y-114049500D01*
X152402123Y-114049501D01*
X152342516Y-114055908D01*
X152207671Y-114106202D01*
X152207664Y-114106206D01*
X152092455Y-114192452D01*
X152092452Y-114192455D01*
X152006206Y-114307664D01*
X152006202Y-114307671D01*
X151955908Y-114442517D01*
X151949501Y-114502116D01*
X151949501Y-114502123D01*
X151949500Y-114502135D01*
X151949500Y-114600500D01*
X151929815Y-114667539D01*
X151877011Y-114713294D01*
X151825500Y-114724500D01*
X148979178Y-114724500D01*
X148912139Y-114704815D01*
X148877603Y-114671623D01*
X148800045Y-114560858D01*
X148639141Y-114399954D01*
X148452734Y-114269432D01*
X148452732Y-114269431D01*
X148246497Y-114173261D01*
X148246488Y-114173258D01*
X148026697Y-114114366D01*
X148026693Y-114114365D01*
X148026692Y-114114365D01*
X148026691Y-114114364D01*
X148026686Y-114114364D01*
X147800002Y-114094532D01*
X147799998Y-114094532D01*
X147573313Y-114114364D01*
X147573302Y-114114366D01*
X147353511Y-114173258D01*
X147353502Y-114173261D01*
X147147267Y-114269431D01*
X147147265Y-114269432D01*
X146960858Y-114399954D01*
X146799954Y-114560858D01*
X146669432Y-114747265D01*
X146669431Y-114747267D01*
X146573261Y-114953502D01*
X146573258Y-114953511D01*
X146514366Y-115173302D01*
X146514364Y-115173313D01*
X146494532Y-115399998D01*
X146494532Y-115400001D01*
X146514364Y-115626686D01*
X146514366Y-115626697D01*
X146540152Y-115722931D01*
X146538489Y-115792781D01*
X146508058Y-115842705D01*
X145047584Y-117303181D01*
X144986261Y-117336666D01*
X144959903Y-117339500D01*
X144331692Y-117339500D01*
X144264653Y-117319815D01*
X144230119Y-117286625D01*
X144100047Y-117100861D01*
X144100045Y-117100858D01*
X143939141Y-116939954D01*
X143752734Y-116809432D01*
X143752728Y-116809429D01*
X143703820Y-116786623D01*
X143694724Y-116782381D01*
X143642285Y-116736210D01*
X143623133Y-116669017D01*
X143643348Y-116602135D01*
X143694725Y-116557618D01*
X143752734Y-116530568D01*
X143939139Y-116400047D01*
X144100047Y-116239139D01*
X144230568Y-116052734D01*
X144326739Y-115846496D01*
X144385635Y-115626692D01*
X144405468Y-115400000D01*
X144402133Y-115361886D01*
X144387310Y-115192454D01*
X144385635Y-115173308D01*
X144326739Y-114953504D01*
X144230568Y-114747266D01*
X144107001Y-114570792D01*
X144100045Y-114560858D01*
X143939141Y-114399954D01*
X143752734Y-114269432D01*
X143752732Y-114269431D01*
X143546497Y-114173261D01*
X143546488Y-114173258D01*
X143326697Y-114114366D01*
X143326693Y-114114365D01*
X143326692Y-114114365D01*
X143326691Y-114114364D01*
X143326686Y-114114364D01*
X143100002Y-114094532D01*
X143099998Y-114094532D01*
X142873313Y-114114364D01*
X142873302Y-114114366D01*
X142777067Y-114140152D01*
X142707217Y-114138489D01*
X142657293Y-114108058D01*
X141787590Y-113238355D01*
X141787588Y-113238352D01*
X141668717Y-113119481D01*
X141668716Y-113119480D01*
X141581904Y-113069360D01*
X141581904Y-113069359D01*
X141581900Y-113069358D01*
X141531785Y-113040423D01*
X141379057Y-112999499D01*
X141220943Y-112999499D01*
X141213347Y-112999499D01*
X141213331Y-112999500D01*
X137550097Y-112999500D01*
X137483058Y-112979815D01*
X137462416Y-112963181D01*
X136636819Y-112137584D01*
X136603334Y-112076261D01*
X136600500Y-112049903D01*
X136600500Y-109389060D01*
X136600501Y-109389047D01*
X136600501Y-109220944D01*
X136600501Y-109220943D01*
X136559577Y-109068216D01*
X136546146Y-109044953D01*
X136480524Y-108931290D01*
X136480518Y-108931282D01*
X136054281Y-108505045D01*
X135547589Y-107998354D01*
X135547588Y-107998352D01*
X135428717Y-107879481D01*
X135428716Y-107879480D01*
X135341904Y-107829360D01*
X135341904Y-107829359D01*
X135341900Y-107829358D01*
X135291785Y-107800423D01*
X135139057Y-107759499D01*
X134980943Y-107759499D01*
X134973347Y-107759499D01*
X134973331Y-107759500D01*
X133889099Y-107759500D01*
X133822060Y-107739815D01*
X133776305Y-107687011D01*
X133766361Y-107617853D01*
X133795386Y-107554297D01*
X133801417Y-107547819D01*
X133844238Y-107504998D01*
X133880520Y-107468716D01*
X133880521Y-107468714D01*
X134380520Y-106968716D01*
X134459577Y-106831784D01*
X134500501Y-106679057D01*
X134500501Y-106520942D01*
X134500501Y-106513347D01*
X134500500Y-106513329D01*
X134500500Y-105579054D01*
X137299498Y-105579054D01*
X137340423Y-105731786D01*
X137340424Y-105731787D01*
X137368560Y-105780520D01*
X137419480Y-105868716D01*
X137419482Y-105868718D01*
X137538349Y-105987585D01*
X137538355Y-105987590D01*
X137735139Y-106184374D01*
X137735149Y-106184385D01*
X137739479Y-106188715D01*
X137739480Y-106188716D01*
X137851284Y-106300520D01*
X137851286Y-106300521D01*
X137851290Y-106300524D01*
X137982909Y-106376513D01*
X137988216Y-106379577D01*
X138093057Y-106407669D01*
X138093059Y-106407670D01*
X138093826Y-106407875D01*
X138153514Y-106444194D01*
X138172308Y-106471377D01*
X138187714Y-106501613D01*
X138308028Y-106667213D01*
X138452786Y-106811971D01*
X138581969Y-106905826D01*
X138618390Y-106932287D01*
X138689886Y-106968716D01*
X138711080Y-106979515D01*
X138761876Y-107027490D01*
X138778671Y-107095311D01*
X138756134Y-107161446D01*
X138711080Y-107200485D01*
X138618386Y-107247715D01*
X138452786Y-107368028D01*
X138308028Y-107512786D01*
X138187715Y-107678386D01*
X138094781Y-107860776D01*
X138031522Y-108055465D01*
X137999500Y-108257648D01*
X137999500Y-108462351D01*
X138031522Y-108664534D01*
X138094781Y-108859223D01*
X138131498Y-108931282D01*
X138182865Y-109032096D01*
X138187715Y-109041613D01*
X138308028Y-109207213D01*
X138452786Y-109351971D01*
X138573262Y-109439500D01*
X138618390Y-109472287D01*
X138709840Y-109518883D01*
X138711080Y-109519515D01*
X138761876Y-109567490D01*
X138778671Y-109635311D01*
X138756134Y-109701446D01*
X138711080Y-109740485D01*
X138618386Y-109787715D01*
X138452786Y-109908028D01*
X138308028Y-110052786D01*
X138187715Y-110218386D01*
X138094781Y-110400776D01*
X138031522Y-110595465D01*
X137999500Y-110797648D01*
X137999500Y-111002351D01*
X138031522Y-111204534D01*
X138094781Y-111399223D01*
X138146385Y-111500500D01*
X138183320Y-111572989D01*
X138187715Y-111581613D01*
X138308028Y-111747213D01*
X138452786Y-111891971D01*
X138585677Y-111988520D01*
X138618390Y-112012287D01*
X138734607Y-112071503D01*
X138800776Y-112105218D01*
X138800778Y-112105218D01*
X138800781Y-112105220D01*
X138855912Y-112123133D01*
X138995465Y-112168477D01*
X139096557Y-112184488D01*
X139197648Y-112200500D01*
X139197649Y-112200500D01*
X140202351Y-112200500D01*
X140202352Y-112200500D01*
X140404534Y-112168477D01*
X140599219Y-112105220D01*
X140781610Y-112012287D01*
X140874590Y-111944732D01*
X140947213Y-111891971D01*
X140947215Y-111891968D01*
X140947219Y-111891966D01*
X141091966Y-111747219D01*
X141091968Y-111747215D01*
X141091971Y-111747213D01*
X141212284Y-111581614D01*
X141212285Y-111581613D01*
X141212287Y-111581610D01*
X141219117Y-111568204D01*
X141267091Y-111517409D01*
X141329602Y-111500500D01*
X141877202Y-111500500D01*
X141944241Y-111520185D01*
X141989996Y-111572989D01*
X142000730Y-111613693D01*
X142019364Y-111826686D01*
X142019366Y-111826697D01*
X142078258Y-112046488D01*
X142078261Y-112046497D01*
X142174431Y-112252732D01*
X142174432Y-112252734D01*
X142304954Y-112439141D01*
X142465858Y-112600045D01*
X142465861Y-112600047D01*
X142652266Y-112730568D01*
X142858504Y-112826739D01*
X143078308Y-112885635D01*
X143240230Y-112899801D01*
X143304998Y-112905468D01*
X143305000Y-112905468D01*
X143305002Y-112905468D01*
X143361673Y-112900509D01*
X143531692Y-112885635D01*
X143751496Y-112826739D01*
X143957734Y-112730568D01*
X144144139Y-112600047D01*
X144305047Y-112439139D01*
X144435568Y-112252734D01*
X144462618Y-112194724D01*
X144508790Y-112142285D01*
X144575983Y-112123133D01*
X144642865Y-112143348D01*
X144687382Y-112194725D01*
X144714429Y-112252728D01*
X144714432Y-112252734D01*
X144844954Y-112439141D01*
X145005858Y-112600045D01*
X145005861Y-112600047D01*
X145192266Y-112730568D01*
X145398504Y-112826739D01*
X145618308Y-112885635D01*
X145780230Y-112899801D01*
X145844998Y-112905468D01*
X145845000Y-112905468D01*
X145845002Y-112905468D01*
X145901673Y-112900509D01*
X146071692Y-112885635D01*
X146291496Y-112826739D01*
X146497734Y-112730568D01*
X146684139Y-112600047D01*
X146845047Y-112439139D01*
X146975568Y-112252734D01*
X147071739Y-112046496D01*
X147130635Y-111826692D01*
X147150468Y-111600000D01*
X147148859Y-111581614D01*
X147132590Y-111395659D01*
X147130635Y-111373308D01*
X147071739Y-111153504D01*
X146975568Y-110947266D01*
X146845047Y-110760861D01*
X146845045Y-110760858D01*
X146684140Y-110599953D01*
X146498377Y-110469881D01*
X146454752Y-110415304D01*
X146445500Y-110368306D01*
X146445500Y-109631692D01*
X146465185Y-109564653D01*
X146498374Y-109530119D01*
X146684139Y-109400047D01*
X146845047Y-109239139D01*
X146975568Y-109052734D01*
X147071739Y-108846496D01*
X147130635Y-108626692D01*
X147150468Y-108400000D01*
X147132970Y-108199994D01*
X161094859Y-108199994D01*
X161094859Y-108200005D01*
X161115385Y-108447729D01*
X161115387Y-108447738D01*
X161176412Y-108688717D01*
X161276266Y-108916364D01*
X161376564Y-109069882D01*
X162117037Y-108329409D01*
X162134075Y-108392993D01*
X162199901Y-108507007D01*
X162292993Y-108600099D01*
X162407007Y-108665925D01*
X162470590Y-108682962D01*
X161729942Y-109423609D01*
X161776768Y-109460055D01*
X161776770Y-109460056D01*
X161995385Y-109578364D01*
X161995396Y-109578369D01*
X162230506Y-109659083D01*
X162475707Y-109700000D01*
X162724293Y-109700000D01*
X162969493Y-109659083D01*
X163204603Y-109578369D01*
X163204614Y-109578364D01*
X163423228Y-109460057D01*
X163423231Y-109460055D01*
X163470056Y-109423609D01*
X162729409Y-108682962D01*
X162792993Y-108665925D01*
X162907007Y-108600099D01*
X163000099Y-108507007D01*
X163065925Y-108392993D01*
X163082962Y-108329410D01*
X163823434Y-109069882D01*
X163923731Y-108916369D01*
X164023587Y-108688717D01*
X164084612Y-108447738D01*
X164084614Y-108447729D01*
X164105141Y-108200005D01*
X164105141Y-108199994D01*
X164084614Y-107952270D01*
X164084612Y-107952261D01*
X164023587Y-107711282D01*
X163923731Y-107483630D01*
X163823434Y-107330116D01*
X163082962Y-108070589D01*
X163065925Y-108007007D01*
X163000099Y-107892993D01*
X162907007Y-107799901D01*
X162792993Y-107734075D01*
X162729410Y-107717037D01*
X163470057Y-106976390D01*
X163470056Y-106976389D01*
X163423229Y-106939943D01*
X163204614Y-106821635D01*
X163204603Y-106821630D01*
X162969493Y-106740916D01*
X162724293Y-106700000D01*
X162475707Y-106700000D01*
X162230506Y-106740916D01*
X161995396Y-106821630D01*
X161995390Y-106821632D01*
X161776761Y-106939949D01*
X161729942Y-106976388D01*
X161729942Y-106976390D01*
X162470590Y-107717037D01*
X162407007Y-107734075D01*
X162292993Y-107799901D01*
X162199901Y-107892993D01*
X162134075Y-108007007D01*
X162117037Y-108070589D01*
X161376564Y-107330116D01*
X161276267Y-107483632D01*
X161176412Y-107711282D01*
X161115387Y-107952261D01*
X161115385Y-107952270D01*
X161094859Y-108199994D01*
X147132970Y-108199994D01*
X147130635Y-108173308D01*
X147071739Y-107953504D01*
X146975568Y-107747266D01*
X146845047Y-107560861D01*
X146845045Y-107560858D01*
X146684141Y-107399954D01*
X146497735Y-107269432D01*
X146472092Y-107257474D01*
X146419654Y-107211300D01*
X146400500Y-107145093D01*
X146400500Y-106531692D01*
X146420185Y-106464653D01*
X146453374Y-106430119D01*
X146639139Y-106300047D01*
X146800047Y-106139139D01*
X146930568Y-105952734D01*
X147026739Y-105746496D01*
X147085635Y-105526692D01*
X147105468Y-105300000D01*
X147085635Y-105073308D01*
X147026739Y-104853504D01*
X146930568Y-104647266D01*
X146800047Y-104460861D01*
X146800045Y-104460858D01*
X146639141Y-104299954D01*
X146452734Y-104169432D01*
X146452732Y-104169431D01*
X146246497Y-104073261D01*
X146246488Y-104073258D01*
X146026697Y-104014366D01*
X146026693Y-104014365D01*
X146026692Y-104014365D01*
X146026691Y-104014364D01*
X146026686Y-104014364D01*
X145862480Y-103999998D01*
X150894532Y-103999998D01*
X150894532Y-104000001D01*
X150914364Y-104226686D01*
X150914366Y-104226697D01*
X150973258Y-104446488D01*
X150973261Y-104446497D01*
X151069431Y-104652732D01*
X151069432Y-104652734D01*
X151199954Y-104839141D01*
X151360858Y-105000045D01*
X151360861Y-105000047D01*
X151547266Y-105130568D01*
X151753504Y-105226739D01*
X151973308Y-105285635D01*
X152135230Y-105299801D01*
X152199998Y-105305468D01*
X152200000Y-105305468D01*
X152200002Y-105305468D01*
X152262522Y-105299998D01*
X152426692Y-105285635D01*
X152646496Y-105226739D01*
X152852734Y-105130568D01*
X153039139Y-105000047D01*
X153200047Y-104839139D01*
X153330118Y-104653375D01*
X153384693Y-104609752D01*
X153431692Y-104600500D01*
X155913331Y-104600500D01*
X155913347Y-104600501D01*
X155920943Y-104600501D01*
X156079054Y-104600501D01*
X156079057Y-104600501D01*
X156231785Y-104559577D01*
X156301200Y-104519500D01*
X156368716Y-104480520D01*
X156480520Y-104368716D01*
X156480520Y-104368714D01*
X156490724Y-104358511D01*
X156490727Y-104358506D01*
X157012416Y-103836819D01*
X157073739Y-103803334D01*
X157100097Y-103800500D01*
X160975501Y-103800500D01*
X161042540Y-103820185D01*
X161088295Y-103872989D01*
X161099501Y-103924500D01*
X161099501Y-104247876D01*
X161105908Y-104307483D01*
X161156202Y-104442328D01*
X161156206Y-104442335D01*
X161242452Y-104557544D01*
X161242455Y-104557547D01*
X161357664Y-104643793D01*
X161357671Y-104643797D01*
X161492517Y-104694091D01*
X161492516Y-104694091D01*
X161499444Y-104694835D01*
X161552127Y-104700500D01*
X163199901Y-104700499D01*
X163266940Y-104720184D01*
X163287582Y-104736818D01*
X163331284Y-104780520D01*
X163331286Y-104780521D01*
X163331290Y-104780524D01*
X163378699Y-104807895D01*
X163468216Y-104859577D01*
X163620943Y-104900500D01*
X164625501Y-104900500D01*
X164692540Y-104920185D01*
X164738295Y-104972989D01*
X164749501Y-105024500D01*
X164749501Y-105197876D01*
X164755908Y-105257483D01*
X164806202Y-105392328D01*
X164806206Y-105392335D01*
X164892452Y-105507544D01*
X164892455Y-105507547D01*
X165007664Y-105593793D01*
X165007671Y-105593797D01*
X165007674Y-105593798D01*
X165139598Y-105643002D01*
X165195531Y-105684873D01*
X165219949Y-105750337D01*
X165205098Y-105818610D01*
X165183947Y-105846865D01*
X165061886Y-105968926D01*
X164926400Y-106162420D01*
X164926399Y-106162422D01*
X164826570Y-106376507D01*
X164826567Y-106376513D01*
X164769364Y-106589999D01*
X164769364Y-106590000D01*
X165666988Y-106590000D01*
X165634075Y-106647007D01*
X165600000Y-106774174D01*
X165600000Y-106905826D01*
X165634075Y-107032993D01*
X165666988Y-107090000D01*
X164769364Y-107090000D01*
X164826567Y-107303486D01*
X164826570Y-107303492D01*
X164926399Y-107517578D01*
X165061894Y-107711082D01*
X165228917Y-107878105D01*
X165422421Y-108013600D01*
X165636507Y-108113429D01*
X165636516Y-108113433D01*
X165850000Y-108170634D01*
X165850000Y-107273012D01*
X165907007Y-107305925D01*
X166034174Y-107340000D01*
X166165826Y-107340000D01*
X166292993Y-107305925D01*
X166350000Y-107273012D01*
X166350000Y-108170633D01*
X166563483Y-108113433D01*
X166563492Y-108113429D01*
X166777578Y-108013600D01*
X166971082Y-107878105D01*
X167138105Y-107711082D01*
X167273600Y-107517578D01*
X167373429Y-107303492D01*
X167373432Y-107303486D01*
X167430636Y-107090000D01*
X166533012Y-107090000D01*
X166565925Y-107032993D01*
X166600000Y-106905826D01*
X166600000Y-106774174D01*
X166565925Y-106647007D01*
X166533012Y-106590000D01*
X167430636Y-106590000D01*
X167430635Y-106589999D01*
X167373432Y-106376513D01*
X167373429Y-106376507D01*
X167273600Y-106162422D01*
X167273599Y-106162420D01*
X167138113Y-105968926D01*
X167138108Y-105968920D01*
X167016053Y-105846865D01*
X166982568Y-105785542D01*
X166987552Y-105715850D01*
X167029424Y-105659917D01*
X167060400Y-105643002D01*
X167192331Y-105593796D01*
X167307546Y-105507546D01*
X167393796Y-105392331D01*
X167444091Y-105257483D01*
X167450500Y-105197873D01*
X167450499Y-103402128D01*
X167444091Y-103342517D01*
X167439634Y-103330568D01*
X167393797Y-103207671D01*
X167393793Y-103207664D01*
X167307547Y-103092455D01*
X167307544Y-103092452D01*
X167192335Y-103006206D01*
X167192328Y-103006202D01*
X167057482Y-102955908D01*
X167057483Y-102955908D01*
X166997883Y-102949501D01*
X166997881Y-102949500D01*
X166997873Y-102949500D01*
X166997864Y-102949500D01*
X165202129Y-102949500D01*
X165202123Y-102949501D01*
X165142516Y-102955908D01*
X165007671Y-103006202D01*
X165007664Y-103006206D01*
X164892455Y-103092452D01*
X164892452Y-103092455D01*
X164806206Y-103207664D01*
X164806202Y-103207671D01*
X164755908Y-103342517D01*
X164751626Y-103382351D01*
X164749501Y-103402123D01*
X164749500Y-103402135D01*
X164749500Y-103575500D01*
X164729815Y-103642539D01*
X164677011Y-103688294D01*
X164625500Y-103699500D01*
X164224500Y-103699500D01*
X164157461Y-103679815D01*
X164111706Y-103627011D01*
X164100500Y-103575500D01*
X164100499Y-102152129D01*
X164100498Y-102152123D01*
X164099948Y-102147007D01*
X164094091Y-102092517D01*
X164093152Y-102090000D01*
X164043797Y-101957671D01*
X164043796Y-101957670D01*
X164043796Y-101957669D01*
X164043017Y-101956628D01*
X164042563Y-101955411D01*
X164039546Y-101949886D01*
X164040340Y-101949452D01*
X164018597Y-101891165D01*
X164033447Y-101822891D01*
X164054597Y-101794636D01*
X166068713Y-99780521D01*
X166068716Y-99780520D01*
X166180520Y-99668716D01*
X166230639Y-99581904D01*
X166259577Y-99531785D01*
X166300501Y-99379057D01*
X166300501Y-99220943D01*
X166300501Y-99213348D01*
X166300500Y-99213330D01*
X166300500Y-98543901D01*
X166320185Y-98476862D01*
X166353376Y-98442326D01*
X166357749Y-98439263D01*
X166357753Y-98439262D01*
X166545591Y-98307736D01*
X166707736Y-98145591D01*
X166839262Y-97957753D01*
X166936171Y-97749930D01*
X166995521Y-97528435D01*
X167015506Y-97300000D01*
X166995521Y-97071565D01*
X166936171Y-96850070D01*
X166839262Y-96642247D01*
X166707736Y-96454409D01*
X166545591Y-96292264D01*
X166357753Y-96160738D01*
X166149930Y-96063829D01*
X166149927Y-96063828D01*
X166149925Y-96063827D01*
X165928436Y-96004479D01*
X165928429Y-96004478D01*
X165700002Y-95984494D01*
X165699998Y-95984494D01*
X165471570Y-96004478D01*
X165471563Y-96004479D01*
X165250074Y-96063827D01*
X165250070Y-96063829D01*
X165042247Y-96160738D01*
X164854409Y-96292264D01*
X164854407Y-96292265D01*
X164854404Y-96292268D01*
X164692268Y-96454404D01*
X164692265Y-96454407D01*
X164692264Y-96454409D01*
X164621496Y-96555476D01*
X164560738Y-96642247D01*
X164463830Y-96850068D01*
X164463827Y-96850074D01*
X164404479Y-97071563D01*
X164404478Y-97071570D01*
X164384494Y-97299997D01*
X164384494Y-97300002D01*
X164404478Y-97528429D01*
X164404479Y-97528436D01*
X164463827Y-97749925D01*
X164463828Y-97749927D01*
X164463829Y-97749930D01*
X164560738Y-97957753D01*
X164692264Y-98145591D01*
X164854409Y-98307736D01*
X165042247Y-98439262D01*
X165042250Y-98439263D01*
X165046624Y-98442326D01*
X165090249Y-98496903D01*
X165099500Y-98543901D01*
X165099500Y-98999903D01*
X165079815Y-99066942D01*
X165063181Y-99087584D01*
X163287584Y-100863181D01*
X163226261Y-100896666D01*
X163199903Y-100899500D01*
X153624499Y-100899500D01*
X153557460Y-100879815D01*
X153511705Y-100827011D01*
X153500499Y-100775500D01*
X153500499Y-100652129D01*
X153500498Y-100652123D01*
X153500497Y-100652116D01*
X153494229Y-100593797D01*
X153494091Y-100592516D01*
X153443797Y-100457671D01*
X153443793Y-100457664D01*
X153357547Y-100342455D01*
X153357544Y-100342452D01*
X153242335Y-100256206D01*
X153242328Y-100256202D01*
X153107482Y-100205908D01*
X153107483Y-100205908D01*
X153047883Y-100199501D01*
X153047881Y-100199500D01*
X153047873Y-100199500D01*
X153047864Y-100199500D01*
X151352129Y-100199500D01*
X151352123Y-100199501D01*
X151292516Y-100205908D01*
X151157671Y-100256202D01*
X151157664Y-100256206D01*
X151042455Y-100342452D01*
X151042452Y-100342455D01*
X150956206Y-100457664D01*
X150956202Y-100457671D01*
X150905908Y-100592517D01*
X150900481Y-100643002D01*
X150899501Y-100652123D01*
X150899500Y-100652135D01*
X150899500Y-102347870D01*
X150899501Y-102347876D01*
X150905908Y-102407483D01*
X150956202Y-102542328D01*
X150956206Y-102542335D01*
X151042452Y-102657544D01*
X151042455Y-102657547D01*
X151157664Y-102743793D01*
X151157671Y-102743797D01*
X151210927Y-102763660D01*
X151292517Y-102794091D01*
X151292527Y-102794092D01*
X151297913Y-102795365D01*
X151358631Y-102829935D01*
X151391021Y-102891843D01*
X151384799Y-102961435D01*
X151357088Y-103003725D01*
X151199951Y-103160862D01*
X151069432Y-103347265D01*
X151069431Y-103347267D01*
X150973261Y-103553502D01*
X150973258Y-103553511D01*
X150914366Y-103773302D01*
X150914364Y-103773313D01*
X150894532Y-103999998D01*
X145862480Y-103999998D01*
X145800002Y-103994532D01*
X145799998Y-103994532D01*
X145573313Y-104014364D01*
X145573302Y-104014366D01*
X145356593Y-104072432D01*
X145286743Y-104070769D01*
X145228881Y-104031606D01*
X145201377Y-103967377D01*
X145200500Y-103952657D01*
X145200500Y-103244049D01*
X145220185Y-103177010D01*
X145272989Y-103131255D01*
X145342147Y-103121311D01*
X145405703Y-103150336D01*
X145412181Y-103156368D01*
X145455858Y-103200045D01*
X145455861Y-103200047D01*
X145642266Y-103330568D01*
X145848504Y-103426739D01*
X146068308Y-103485635D01*
X146230230Y-103499801D01*
X146294998Y-103505468D01*
X146295000Y-103505468D01*
X146295002Y-103505468D01*
X146351673Y-103500509D01*
X146521692Y-103485635D01*
X146741496Y-103426739D01*
X146947734Y-103330568D01*
X147134139Y-103200047D01*
X147295047Y-103039139D01*
X147425568Y-102852734D01*
X147521739Y-102646496D01*
X147580635Y-102426692D01*
X147600468Y-102200000D01*
X147597643Y-102167715D01*
X147589822Y-102078318D01*
X147580635Y-101973308D01*
X147532759Y-101794633D01*
X147521741Y-101753511D01*
X147521738Y-101753502D01*
X147511698Y-101731971D01*
X147425568Y-101547266D01*
X147306002Y-101376507D01*
X147295045Y-101360858D01*
X147134141Y-101199954D01*
X146947734Y-101069432D01*
X146947732Y-101069431D01*
X146741497Y-100973261D01*
X146741488Y-100973258D01*
X146521697Y-100914366D01*
X146521693Y-100914365D01*
X146521692Y-100914365D01*
X146521691Y-100914364D01*
X146521686Y-100914364D01*
X146295002Y-100894532D01*
X146294998Y-100894532D01*
X146068313Y-100914364D01*
X146068302Y-100914366D01*
X145848511Y-100973258D01*
X145848502Y-100973261D01*
X145642267Y-101069431D01*
X145642265Y-101069432D01*
X145455858Y-101199954D01*
X145294954Y-101360858D01*
X145164432Y-101547265D01*
X145164431Y-101547267D01*
X145137382Y-101605275D01*
X145091209Y-101657714D01*
X145024016Y-101676866D01*
X144957135Y-101656650D01*
X144912618Y-101605275D01*
X144905495Y-101589999D01*
X144885568Y-101547266D01*
X144766002Y-101376507D01*
X144755045Y-101360858D01*
X144594141Y-101199954D01*
X144407734Y-101069432D01*
X144407732Y-101069431D01*
X144201497Y-100973261D01*
X144201488Y-100973258D01*
X143981697Y-100914366D01*
X143981693Y-100914365D01*
X143981692Y-100914365D01*
X143981691Y-100914364D01*
X143981686Y-100914364D01*
X143755002Y-100894532D01*
X143754998Y-100894532D01*
X143528313Y-100914364D01*
X143528302Y-100914366D01*
X143308511Y-100973258D01*
X143308502Y-100973261D01*
X143102267Y-101069431D01*
X143102265Y-101069432D01*
X142915858Y-101199954D01*
X142754954Y-101360858D01*
X142624432Y-101547265D01*
X142624431Y-101547267D01*
X142528261Y-101753502D01*
X142528258Y-101753511D01*
X142469366Y-101973302D01*
X142469364Y-101973313D01*
X142449532Y-102199998D01*
X142449532Y-102200001D01*
X142469364Y-102426686D01*
X142469366Y-102426697D01*
X142528258Y-102646488D01*
X142528261Y-102646497D01*
X142624431Y-102852732D01*
X142624432Y-102852734D01*
X142754954Y-103039141D01*
X142915858Y-103200045D01*
X142915861Y-103200047D01*
X143102266Y-103330568D01*
X143308504Y-103426739D01*
X143528308Y-103485635D01*
X143690230Y-103499801D01*
X143754998Y-103505468D01*
X143755000Y-103505468D01*
X143755001Y-103505468D01*
X143790362Y-103502374D01*
X143864692Y-103495871D01*
X143933192Y-103509638D01*
X143983375Y-103558253D01*
X143999500Y-103619399D01*
X143999500Y-103996598D01*
X143979815Y-104063637D01*
X143927011Y-104109392D01*
X143857853Y-104119336D01*
X143823095Y-104108980D01*
X143746496Y-104073261D01*
X143746492Y-104073260D01*
X143746488Y-104073258D01*
X143526697Y-104014366D01*
X143526693Y-104014365D01*
X143526692Y-104014365D01*
X143526691Y-104014364D01*
X143526686Y-104014364D01*
X143300002Y-103994532D01*
X143299998Y-103994532D01*
X143073313Y-104014364D01*
X143073302Y-104014366D01*
X142853511Y-104073258D01*
X142853502Y-104073261D01*
X142647267Y-104169431D01*
X142647265Y-104169432D01*
X142460858Y-104299954D01*
X142299954Y-104460858D01*
X142238604Y-104548477D01*
X142169881Y-104646624D01*
X142115307Y-104690248D01*
X142068308Y-104699500D01*
X140795261Y-104699500D01*
X140738964Y-104685984D01*
X140688918Y-104660483D01*
X140638123Y-104612507D01*
X140621329Y-104544686D01*
X140643868Y-104478551D01*
X140688919Y-104439515D01*
X140781610Y-104392287D01*
X140908698Y-104299953D01*
X140947213Y-104271971D01*
X140947215Y-104271968D01*
X140947219Y-104271966D01*
X141091966Y-104127219D01*
X141091968Y-104127215D01*
X141091971Y-104127213D01*
X141161432Y-104031606D01*
X141212287Y-103961610D01*
X141305220Y-103779219D01*
X141368477Y-103584534D01*
X141400500Y-103382352D01*
X141400500Y-103177648D01*
X141387006Y-103092452D01*
X141368477Y-102975465D01*
X141311627Y-102800500D01*
X141305220Y-102780781D01*
X141305218Y-102780778D01*
X141305218Y-102780776D01*
X141269707Y-102711082D01*
X141212287Y-102598390D01*
X141198302Y-102579141D01*
X141091971Y-102432786D01*
X140947213Y-102288028D01*
X140781614Y-102167715D01*
X140761489Y-102157461D01*
X140688917Y-102120483D01*
X140638123Y-102072511D01*
X140621328Y-102004690D01*
X140643865Y-101938555D01*
X140688917Y-101899516D01*
X140781610Y-101852287D01*
X140802770Y-101836913D01*
X140947213Y-101731971D01*
X140947215Y-101731968D01*
X140947219Y-101731966D01*
X141091966Y-101587219D01*
X141091968Y-101587215D01*
X141091971Y-101587213D01*
X141181997Y-101463301D01*
X141212287Y-101421610D01*
X141305220Y-101239219D01*
X141368477Y-101044534D01*
X141400500Y-100842352D01*
X141400500Y-100637648D01*
X141368477Y-100435466D01*
X141365641Y-100426739D01*
X141338256Y-100342455D01*
X141305220Y-100240781D01*
X141305217Y-100240777D01*
X141305217Y-100240774D01*
X141245950Y-100124458D01*
X141233053Y-100055789D01*
X141259329Y-99991048D01*
X141268755Y-99980479D01*
X141312419Y-99936817D01*
X141373743Y-99903333D01*
X141400098Y-99900500D01*
X160213331Y-99900500D01*
X160213347Y-99900501D01*
X160220943Y-99900501D01*
X160379054Y-99900501D01*
X160379057Y-99900501D01*
X160531785Y-99859577D01*
X160581904Y-99830639D01*
X160668716Y-99780520D01*
X160780520Y-99668716D01*
X160780520Y-99668714D01*
X160790728Y-99658507D01*
X160790730Y-99658504D01*
X163558506Y-96890728D01*
X163558511Y-96890724D01*
X163568714Y-96880520D01*
X163568716Y-96880520D01*
X163680520Y-96768716D01*
X163759577Y-96631784D01*
X163800500Y-96479057D01*
X163800500Y-93543901D01*
X163820185Y-93476862D01*
X163853376Y-93442326D01*
X163857749Y-93439263D01*
X163857753Y-93439262D01*
X164045591Y-93307736D01*
X164207736Y-93145591D01*
X164339262Y-92957753D01*
X164436171Y-92749930D01*
X164495521Y-92528435D01*
X164515506Y-92300000D01*
X164495521Y-92071565D01*
X164436171Y-91850070D01*
X164339262Y-91642247D01*
X164207736Y-91454409D01*
X164045591Y-91292264D01*
X163857753Y-91160738D01*
X163649930Y-91063829D01*
X163649927Y-91063828D01*
X163649925Y-91063827D01*
X163428436Y-91004479D01*
X163428429Y-91004478D01*
X163200002Y-90984494D01*
X163199998Y-90984494D01*
X162971570Y-91004478D01*
X162971563Y-91004479D01*
X162750074Y-91063827D01*
X162750070Y-91063829D01*
X162542247Y-91160738D01*
X162354409Y-91292264D01*
X162354407Y-91292265D01*
X162354404Y-91292268D01*
X162192268Y-91454404D01*
X162192265Y-91454407D01*
X162192264Y-91454409D01*
X162096286Y-91591479D01*
X162060738Y-91642247D01*
X161963830Y-91850068D01*
X161963827Y-91850074D01*
X161904479Y-92071563D01*
X161904478Y-92071570D01*
X161884494Y-92299997D01*
X161884494Y-92300002D01*
X161904478Y-92528429D01*
X161904479Y-92528436D01*
X161963827Y-92749925D01*
X161963828Y-92749927D01*
X161963829Y-92749930D01*
X162060738Y-92957753D01*
X162192264Y-93145591D01*
X162354409Y-93307736D01*
X162542247Y-93439262D01*
X162542250Y-93439263D01*
X162546624Y-93442326D01*
X162590249Y-93496903D01*
X162599500Y-93543901D01*
X162599500Y-96099903D01*
X162579815Y-96166942D01*
X162563181Y-96187584D01*
X160087584Y-98663181D01*
X160026261Y-98696666D01*
X159999903Y-98699500D01*
X141475801Y-98699500D01*
X141408762Y-98679815D01*
X141363007Y-98627011D01*
X141353063Y-98557853D01*
X141357870Y-98537183D01*
X141368475Y-98504542D01*
X141368475Y-98504538D01*
X141368477Y-98504534D01*
X141400500Y-98302352D01*
X141400500Y-98097648D01*
X141368477Y-97895465D01*
X141305218Y-97700776D01*
X141260661Y-97613329D01*
X141212287Y-97518390D01*
X141198926Y-97500000D01*
X141091971Y-97352786D01*
X140947213Y-97208028D01*
X140781614Y-97087715D01*
X140775006Y-97084348D01*
X140688917Y-97040483D01*
X140638123Y-96992511D01*
X140621328Y-96924690D01*
X140643865Y-96858555D01*
X140688917Y-96819516D01*
X140781610Y-96772287D01*
X140843586Y-96727259D01*
X140947213Y-96651971D01*
X140947215Y-96651968D01*
X140947219Y-96651966D01*
X141091966Y-96507219D01*
X141091968Y-96507215D01*
X141091971Y-96507213D01*
X141189552Y-96372902D01*
X141212287Y-96341610D01*
X141305220Y-96159219D01*
X141368477Y-95964534D01*
X141400500Y-95762352D01*
X141400500Y-95557648D01*
X141400164Y-95555528D01*
X141368477Y-95355465D01*
X141315119Y-95191248D01*
X141305220Y-95160781D01*
X141305218Y-95160778D01*
X141305218Y-95160776D01*
X141246989Y-95046497D01*
X141212287Y-94978390D01*
X141132606Y-94868717D01*
X141091971Y-94812786D01*
X140947213Y-94668028D01*
X140853576Y-94599998D01*
X141494532Y-94599998D01*
X141494532Y-94600001D01*
X141514364Y-94826686D01*
X141514366Y-94826697D01*
X141573258Y-95046488D01*
X141573261Y-95046497D01*
X141669431Y-95252732D01*
X141669432Y-95252734D01*
X141799954Y-95439141D01*
X141960858Y-95600045D01*
X141960861Y-95600047D01*
X142147266Y-95730568D01*
X142162975Y-95737893D01*
X142215414Y-95784064D01*
X142234567Y-95851257D01*
X142214352Y-95918138D01*
X142162979Y-95962656D01*
X142147514Y-95969867D01*
X142147512Y-95969868D01*
X142074526Y-96020973D01*
X142074526Y-96020974D01*
X142753553Y-96700000D01*
X142747339Y-96700000D01*
X142645606Y-96727259D01*
X142554394Y-96779920D01*
X142479920Y-96854394D01*
X142427259Y-96945606D01*
X142400000Y-97047339D01*
X142400000Y-97053552D01*
X141720974Y-96374526D01*
X141720973Y-96374526D01*
X141669868Y-96447512D01*
X141669866Y-96447516D01*
X141573734Y-96653673D01*
X141573730Y-96653682D01*
X141514860Y-96873389D01*
X141514858Y-96873400D01*
X141495034Y-97099997D01*
X141495034Y-97100002D01*
X141514858Y-97326599D01*
X141514860Y-97326610D01*
X141573730Y-97546317D01*
X141573735Y-97546331D01*
X141669863Y-97752478D01*
X141720974Y-97825472D01*
X142400000Y-97146446D01*
X142400000Y-97152661D01*
X142427259Y-97254394D01*
X142479920Y-97345606D01*
X142554394Y-97420080D01*
X142645606Y-97472741D01*
X142747339Y-97500000D01*
X142753553Y-97500000D01*
X142074526Y-98179025D01*
X142147513Y-98230132D01*
X142147521Y-98230136D01*
X142353668Y-98326264D01*
X142353682Y-98326269D01*
X142573389Y-98385139D01*
X142573400Y-98385141D01*
X142799998Y-98404966D01*
X142800002Y-98404966D01*
X143026599Y-98385141D01*
X143026610Y-98385139D01*
X143246317Y-98326269D01*
X143246331Y-98326264D01*
X143452478Y-98230136D01*
X143525471Y-98179024D01*
X142846447Y-97500000D01*
X142852661Y-97500000D01*
X142954394Y-97472741D01*
X143045606Y-97420080D01*
X143120080Y-97345606D01*
X143172741Y-97254394D01*
X143200000Y-97152661D01*
X143200000Y-97146447D01*
X143879024Y-97825471D01*
X143930136Y-97752478D01*
X144026264Y-97546331D01*
X144026269Y-97546317D01*
X144085139Y-97326610D01*
X144085141Y-97326599D01*
X144104966Y-97100002D01*
X144104966Y-97099997D01*
X144085141Y-96873400D01*
X144085139Y-96873389D01*
X144026269Y-96653682D01*
X144026264Y-96653668D01*
X143930136Y-96447521D01*
X143930132Y-96447513D01*
X143879025Y-96374526D01*
X143200000Y-97053551D01*
X143200000Y-97047339D01*
X143172741Y-96945606D01*
X143120080Y-96854394D01*
X143045606Y-96779920D01*
X142954394Y-96727259D01*
X142852661Y-96700000D01*
X142846448Y-96700000D01*
X143525472Y-96020974D01*
X143452480Y-95969864D01*
X143437024Y-95962657D01*
X143384585Y-95916484D01*
X143365433Y-95849290D01*
X143385649Y-95782409D01*
X143437023Y-95737893D01*
X143452734Y-95730568D01*
X143639139Y-95600047D01*
X143800047Y-95439139D01*
X143930568Y-95252734D01*
X144026739Y-95046496D01*
X144085635Y-94826692D01*
X144103569Y-94621701D01*
X144105468Y-94600001D01*
X144105468Y-94599998D01*
X144092303Y-94449522D01*
X144085635Y-94373308D01*
X144026739Y-94153504D01*
X143930568Y-93947266D01*
X143800047Y-93760861D01*
X143800045Y-93760858D01*
X143639141Y-93599954D01*
X143452734Y-93469432D01*
X143452732Y-93469431D01*
X143246497Y-93373261D01*
X143246488Y-93373258D01*
X143026697Y-93314366D01*
X143026693Y-93314365D01*
X143026692Y-93314365D01*
X143026691Y-93314364D01*
X143026686Y-93314364D01*
X142800002Y-93294532D01*
X142799998Y-93294532D01*
X142573313Y-93314364D01*
X142573302Y-93314366D01*
X142353511Y-93373258D01*
X142353502Y-93373261D01*
X142147267Y-93469431D01*
X142147265Y-93469432D01*
X141960858Y-93599954D01*
X141799954Y-93760858D01*
X141669432Y-93947265D01*
X141669431Y-93947267D01*
X141573261Y-94153502D01*
X141573258Y-94153511D01*
X141514366Y-94373302D01*
X141514364Y-94373313D01*
X141494532Y-94599998D01*
X140853576Y-94599998D01*
X140781613Y-94547715D01*
X140781612Y-94547714D01*
X140781610Y-94547713D01*
X140724653Y-94518691D01*
X140599223Y-94454781D01*
X140404534Y-94391522D01*
X140229995Y-94363878D01*
X140202352Y-94359500D01*
X139197648Y-94359500D01*
X139173329Y-94363351D01*
X138995465Y-94391522D01*
X138800776Y-94454781D01*
X138618386Y-94547715D01*
X138452786Y-94668028D01*
X138308028Y-94812786D01*
X138187715Y-94978386D01*
X138094781Y-95160776D01*
X138031522Y-95355465D01*
X137999500Y-95557648D01*
X137999500Y-95762351D01*
X138031522Y-95964534D01*
X138094781Y-96159223D01*
X138187715Y-96341613D01*
X138308028Y-96507213D01*
X138452786Y-96651971D01*
X138589973Y-96751641D01*
X138618390Y-96772287D01*
X138709840Y-96818883D01*
X138711080Y-96819515D01*
X138761876Y-96867490D01*
X138778671Y-96935311D01*
X138756134Y-97001446D01*
X138711080Y-97040485D01*
X138618386Y-97087715D01*
X138452786Y-97208028D01*
X138308028Y-97352786D01*
X138187715Y-97518386D01*
X138094779Y-97700780D01*
X138077408Y-97754243D01*
X138047161Y-97803601D01*
X138019480Y-97831284D01*
X137419481Y-98431282D01*
X137419479Y-98431285D01*
X137394420Y-98474689D01*
X137377190Y-98504534D01*
X137369361Y-98518094D01*
X137369359Y-98518096D01*
X137340425Y-98568209D01*
X137340424Y-98568210D01*
X137334519Y-98590248D01*
X137299499Y-98720943D01*
X137299499Y-98720945D01*
X137299499Y-98889046D01*
X137299500Y-98889059D01*
X137299500Y-105413330D01*
X137299499Y-105413348D01*
X137299499Y-105579054D01*
X137299498Y-105579054D01*
X134500500Y-105579054D01*
X134500500Y-103820945D01*
X134500500Y-103820943D01*
X134459577Y-103668216D01*
X134406048Y-103575500D01*
X134380524Y-103531290D01*
X134380521Y-103531286D01*
X134380520Y-103531284D01*
X134268716Y-103419480D01*
X134268715Y-103419479D01*
X134264385Y-103415149D01*
X134264374Y-103415139D01*
X133767590Y-102918355D01*
X133767588Y-102918352D01*
X133732840Y-102883604D01*
X133702590Y-102834240D01*
X133685222Y-102780786D01*
X133685220Y-102780780D01*
X133652620Y-102716800D01*
X133592287Y-102598390D01*
X133578302Y-102579141D01*
X133471971Y-102432786D01*
X133327213Y-102288028D01*
X133161614Y-102167715D01*
X133141489Y-102157461D01*
X133068917Y-102120483D01*
X133018123Y-102072511D01*
X133001328Y-102004690D01*
X133023865Y-101938555D01*
X133068917Y-101899516D01*
X133161610Y-101852287D01*
X133182770Y-101836913D01*
X133327213Y-101731971D01*
X133327215Y-101731968D01*
X133327219Y-101731966D01*
X133471966Y-101587219D01*
X133471968Y-101587215D01*
X133471971Y-101587213D01*
X133561997Y-101463301D01*
X133592287Y-101421610D01*
X133685220Y-101239219D01*
X133748477Y-101044534D01*
X133780500Y-100842352D01*
X133780500Y-100637648D01*
X133748477Y-100435466D01*
X133745641Y-100426739D01*
X133714393Y-100330567D01*
X133685220Y-100240781D01*
X133685218Y-100240778D01*
X133685218Y-100240776D01*
X133625950Y-100124458D01*
X133592287Y-100058390D01*
X133578302Y-100039141D01*
X133471971Y-99892786D01*
X133327213Y-99748028D01*
X133161614Y-99627715D01*
X133155006Y-99624348D01*
X133068917Y-99580483D01*
X133018123Y-99532511D01*
X133001328Y-99464690D01*
X133023865Y-99398555D01*
X133068917Y-99359516D01*
X133161610Y-99312287D01*
X133279501Y-99226635D01*
X133327213Y-99191971D01*
X133327215Y-99191968D01*
X133327219Y-99191966D01*
X133471966Y-99047219D01*
X133471968Y-99047215D01*
X133471971Y-99047213D01*
X133561997Y-98923301D01*
X133592287Y-98881610D01*
X133647245Y-98773747D01*
X133695218Y-98722953D01*
X133695342Y-98722880D01*
X133768716Y-98680520D01*
X133880520Y-98568716D01*
X133880521Y-98568714D01*
X134380520Y-98068716D01*
X134459577Y-97931784D01*
X134500501Y-97779057D01*
X134500501Y-97620942D01*
X134500501Y-97613347D01*
X134500500Y-97613329D01*
X134500500Y-92089059D01*
X134500501Y-92089046D01*
X134500501Y-91920945D01*
X134500501Y-91920943D01*
X134459577Y-91768215D01*
X134408946Y-91680520D01*
X134380520Y-91631284D01*
X134268716Y-91519480D01*
X134268715Y-91519479D01*
X134264385Y-91515149D01*
X134264374Y-91515139D01*
X133736819Y-90987584D01*
X133703334Y-90926261D01*
X133700500Y-90899903D01*
X133700500Y-90831692D01*
X133720185Y-90764653D01*
X133753374Y-90730119D01*
X133939139Y-90600047D01*
X134100047Y-90439139D01*
X134230568Y-90252734D01*
X134326739Y-90046496D01*
X134385635Y-89826692D01*
X134404115Y-89615465D01*
X134405468Y-89600001D01*
X134405468Y-89599998D01*
X134394421Y-89473730D01*
X134385635Y-89373308D01*
X134326739Y-89153504D01*
X134230568Y-88947266D01*
X134100047Y-88760861D01*
X134100045Y-88760858D01*
X133939141Y-88599954D01*
X133752734Y-88469432D01*
X133752728Y-88469429D01*
X133694725Y-88442382D01*
X133642285Y-88396210D01*
X133623133Y-88329017D01*
X133643348Y-88262135D01*
X133694725Y-88217618D01*
X133752734Y-88190568D01*
X133939139Y-88060047D01*
X134100047Y-87899139D01*
X134230568Y-87712734D01*
X134326739Y-87506496D01*
X134385635Y-87286692D01*
X134405468Y-87060000D01*
X134385635Y-86833308D01*
X134359847Y-86737066D01*
X134361510Y-86667217D01*
X134391939Y-86617294D01*
X135687693Y-85321543D01*
X135749016Y-85288058D01*
X135775374Y-85285224D01*
X135957964Y-85285224D01*
X136025003Y-85304909D01*
X136056918Y-85334497D01*
X136128513Y-85429305D01*
X136279234Y-85566704D01*
X136279236Y-85566706D01*
X136309007Y-85585139D01*
X136452639Y-85674072D01*
X136642820Y-85747748D01*
X136843300Y-85785224D01*
X136843302Y-85785224D01*
X136989746Y-85785224D01*
X137056785Y-85804909D01*
X137102540Y-85857713D01*
X137113217Y-85920665D01*
X137110061Y-85954723D01*
X137110061Y-85954724D01*
X137128878Y-86157806D01*
X137184693Y-86353971D01*
X137184698Y-86353984D01*
X137275603Y-86536545D01*
X137398513Y-86699305D01*
X137508423Y-86799500D01*
X137549235Y-86836705D01*
X137549237Y-86836706D01*
X137550224Y-86837452D01*
X137550579Y-86837931D01*
X137553472Y-86840568D01*
X137552956Y-86841133D01*
X137591862Y-86893559D01*
X137599500Y-86936408D01*
X137599500Y-89275500D01*
X137579815Y-89342539D01*
X137527011Y-89388294D01*
X137475501Y-89399500D01*
X137352130Y-89399500D01*
X137352123Y-89399501D01*
X137292516Y-89405908D01*
X137157671Y-89456202D01*
X137157664Y-89456206D01*
X137042455Y-89542452D01*
X137042452Y-89542455D01*
X136956206Y-89657664D01*
X136956202Y-89657671D01*
X136905908Y-89792517D01*
X136899501Y-89852116D01*
X136899500Y-89852135D01*
X136899500Y-91547870D01*
X136899501Y-91547876D01*
X136905908Y-91607483D01*
X136956202Y-91742328D01*
X136956206Y-91742335D01*
X137042452Y-91857544D01*
X137042455Y-91857547D01*
X137157664Y-91943793D01*
X137157671Y-91943797D01*
X137292517Y-91994091D01*
X137292516Y-91994091D01*
X137299444Y-91994835D01*
X137352127Y-92000500D01*
X139047872Y-92000499D01*
X139107483Y-91994091D01*
X139242331Y-91943796D01*
X139357546Y-91857546D01*
X139364350Y-91848455D01*
X139420280Y-91806584D01*
X139489971Y-91801597D01*
X139534740Y-91821188D01*
X139547512Y-91830130D01*
X139547518Y-91830134D01*
X139753673Y-91926265D01*
X139753682Y-91926269D01*
X139973389Y-91985139D01*
X139973400Y-91985141D01*
X140199998Y-92004966D01*
X140200002Y-92004966D01*
X140426599Y-91985141D01*
X140426610Y-91985139D01*
X140646317Y-91926269D01*
X140646331Y-91926264D01*
X140852478Y-91830136D01*
X140925471Y-91779024D01*
X140246447Y-91100000D01*
X140252661Y-91100000D01*
X140354394Y-91072741D01*
X140445606Y-91020080D01*
X140520080Y-90945606D01*
X140572741Y-90854394D01*
X140600000Y-90752661D01*
X140600000Y-90746447D01*
X141279024Y-91425471D01*
X141330136Y-91352478D01*
X141426264Y-91146331D01*
X141426269Y-91146317D01*
X141485139Y-90926610D01*
X141485141Y-90926599D01*
X141504966Y-90700002D01*
X141504966Y-90699997D01*
X141485141Y-90473400D01*
X141485139Y-90473389D01*
X141426269Y-90253682D01*
X141426264Y-90253668D01*
X141330136Y-90047521D01*
X141330132Y-90047513D01*
X141279025Y-89974526D01*
X140600000Y-90653551D01*
X140600000Y-90647339D01*
X140572741Y-90545606D01*
X140520080Y-90454394D01*
X140445606Y-90379920D01*
X140354394Y-90327259D01*
X140252661Y-90300000D01*
X140246447Y-90300000D01*
X140925472Y-89620974D01*
X140852478Y-89569863D01*
X140646331Y-89473735D01*
X140646317Y-89473730D01*
X140426610Y-89414860D01*
X140426599Y-89414858D01*
X140200002Y-89395034D01*
X140199998Y-89395034D01*
X139973400Y-89414858D01*
X139973389Y-89414860D01*
X139753682Y-89473730D01*
X139753673Y-89473734D01*
X139547512Y-89569868D01*
X139547507Y-89569871D01*
X139534736Y-89578813D01*
X139468529Y-89601138D01*
X139400763Y-89584124D01*
X139364352Y-89551546D01*
X139357546Y-89542454D01*
X139357544Y-89542453D01*
X139357544Y-89542452D01*
X139242335Y-89456206D01*
X139242328Y-89456202D01*
X139107482Y-89405908D01*
X139107483Y-89405908D01*
X139047883Y-89399501D01*
X139047881Y-89399500D01*
X139047873Y-89399500D01*
X139047865Y-89399500D01*
X138924500Y-89399500D01*
X138857461Y-89379815D01*
X138811706Y-89327011D01*
X138800500Y-89275500D01*
X138800500Y-86955811D01*
X138820185Y-86888772D01*
X138859223Y-86850384D01*
X138881317Y-86836705D01*
X139032040Y-86699303D01*
X139069442Y-86649773D01*
X139125551Y-86608137D01*
X139168397Y-86600500D01*
X140052718Y-86600500D01*
X140119757Y-86620185D01*
X140140398Y-86636818D01*
X141278469Y-87774890D01*
X141278471Y-87774891D01*
X141278475Y-87774894D01*
X141358239Y-87820945D01*
X141415401Y-87853947D01*
X141568128Y-87894871D01*
X141583611Y-87894871D01*
X141615703Y-87899096D01*
X141620943Y-87900500D01*
X143464807Y-87900500D01*
X143531846Y-87920185D01*
X143566382Y-87953377D01*
X143569430Y-87957730D01*
X143569432Y-87957734D01*
X143639407Y-88057669D01*
X143699954Y-88144141D01*
X143860858Y-88305045D01*
X143860861Y-88305047D01*
X144047266Y-88435568D01*
X144061879Y-88442382D01*
X144105275Y-88462618D01*
X144157714Y-88508791D01*
X144176866Y-88575984D01*
X144156650Y-88642865D01*
X144105275Y-88687382D01*
X144047267Y-88714431D01*
X144047265Y-88714432D01*
X143860858Y-88844954D01*
X143699954Y-89005858D01*
X143569432Y-89192265D01*
X143569431Y-89192267D01*
X143473261Y-89398502D01*
X143473258Y-89398511D01*
X143414366Y-89618302D01*
X143414364Y-89618313D01*
X143394532Y-89844998D01*
X143394532Y-89845001D01*
X143414364Y-90071686D01*
X143414366Y-90071697D01*
X143473258Y-90291488D01*
X143473261Y-90291497D01*
X143569431Y-90497732D01*
X143569432Y-90497734D01*
X143699954Y-90684141D01*
X143860858Y-90845045D01*
X143860861Y-90845047D01*
X144047266Y-90975568D01*
X144253504Y-91071739D01*
X144253509Y-91071740D01*
X144253511Y-91071741D01*
X144306415Y-91085916D01*
X144473308Y-91130635D01*
X144635230Y-91144801D01*
X144699998Y-91150468D01*
X144700000Y-91150468D01*
X144700002Y-91150468D01*
X144756673Y-91145509D01*
X144926692Y-91130635D01*
X145146496Y-91071739D01*
X145352734Y-90975568D01*
X145539139Y-90845047D01*
X145608983Y-90775203D01*
X145687819Y-90696368D01*
X145749142Y-90662883D01*
X145818834Y-90667867D01*
X145874767Y-90709739D01*
X145899184Y-90775203D01*
X145899500Y-90784049D01*
X145899500Y-94413330D01*
X145899499Y-94413348D01*
X145899499Y-94579054D01*
X145899498Y-94579054D01*
X145913050Y-94629629D01*
X145940423Y-94731785D01*
X145950198Y-94748716D01*
X145966328Y-94776652D01*
X145966329Y-94776656D01*
X145966330Y-94776656D01*
X146019479Y-94868714D01*
X146019481Y-94868717D01*
X146138349Y-94987585D01*
X146138355Y-94987590D01*
X146524241Y-95373476D01*
X146557726Y-95434799D01*
X146558331Y-95475833D01*
X146559408Y-95475933D01*
X146540061Y-95684723D01*
X146540061Y-95684724D01*
X146558878Y-95887806D01*
X146614693Y-96083971D01*
X146614698Y-96083984D01*
X146705603Y-96266545D01*
X146828513Y-96429305D01*
X146979234Y-96566704D01*
X146979236Y-96566706D01*
X147078417Y-96628116D01*
X147152639Y-96674072D01*
X147342820Y-96747748D01*
X147543300Y-96785224D01*
X147543302Y-96785224D01*
X147689746Y-96785224D01*
X147756785Y-96804909D01*
X147802540Y-96857713D01*
X147813217Y-96920665D01*
X147810061Y-96954723D01*
X147810061Y-96954724D01*
X147828878Y-97157806D01*
X147884693Y-97353971D01*
X147884698Y-97353984D01*
X147975603Y-97536545D01*
X148098513Y-97699305D01*
X148249234Y-97836704D01*
X148249236Y-97836706D01*
X148342629Y-97894532D01*
X148422639Y-97944072D01*
X148612820Y-98017748D01*
X148813300Y-98055224D01*
X148813302Y-98055224D01*
X149017250Y-98055224D01*
X149017252Y-98055224D01*
X149217732Y-98017748D01*
X149407913Y-97944072D01*
X149581317Y-97836705D01*
X149732040Y-97699303D01*
X149854949Y-97536545D01*
X149945858Y-97353974D01*
X150001673Y-97157807D01*
X150020491Y-96954724D01*
X150001673Y-96751641D01*
X149945858Y-96555474D01*
X149854949Y-96372903D01*
X149732040Y-96210145D01*
X149732038Y-96210142D01*
X149581317Y-96072743D01*
X149581315Y-96072741D01*
X149407918Y-95965379D01*
X149407911Y-95965375D01*
X149281707Y-95916484D01*
X149235717Y-95898667D01*
X149180317Y-95856095D01*
X149156726Y-95790328D01*
X149172437Y-95722248D01*
X149222461Y-95673469D01*
X149242194Y-95665110D01*
X149337531Y-95634132D01*
X149491800Y-95555528D01*
X149631878Y-95453756D01*
X149754308Y-95331326D01*
X149856080Y-95191248D01*
X149934684Y-95036981D01*
X149988190Y-94872308D01*
X150015276Y-94701295D01*
X150015276Y-94664724D01*
X149160251Y-94664724D01*
X149195346Y-94629629D01*
X149241424Y-94549819D01*
X149265276Y-94460802D01*
X149265276Y-94368646D01*
X149241424Y-94279629D01*
X149195346Y-94199819D01*
X149160251Y-94164724D01*
X149165276Y-94164724D01*
X150015276Y-94164724D01*
X150015276Y-94128152D01*
X149988190Y-93957139D01*
X149934684Y-93792466D01*
X149856080Y-93638199D01*
X149754308Y-93498121D01*
X149631878Y-93375691D01*
X149527694Y-93299997D01*
X153495034Y-93299997D01*
X153495034Y-93300002D01*
X153514858Y-93526599D01*
X153514860Y-93526610D01*
X153573730Y-93746317D01*
X153573735Y-93746331D01*
X153669863Y-93952478D01*
X153720974Y-94025472D01*
X154400000Y-93346446D01*
X154400000Y-93352661D01*
X154427259Y-93454394D01*
X154479920Y-93545606D01*
X154554394Y-93620080D01*
X154645606Y-93672741D01*
X154747339Y-93700000D01*
X154753553Y-93700000D01*
X154074526Y-94379025D01*
X154147513Y-94430132D01*
X154147521Y-94430136D01*
X154353668Y-94526264D01*
X154353682Y-94526269D01*
X154573389Y-94585139D01*
X154573400Y-94585141D01*
X154799998Y-94604966D01*
X154800002Y-94604966D01*
X155026599Y-94585141D01*
X155026610Y-94585139D01*
X155246317Y-94526269D01*
X155246331Y-94526264D01*
X155452478Y-94430136D01*
X155525471Y-94379024D01*
X154846447Y-93700000D01*
X154852661Y-93700000D01*
X154954394Y-93672741D01*
X155045606Y-93620080D01*
X155120080Y-93545606D01*
X155172741Y-93454394D01*
X155200000Y-93352661D01*
X155200000Y-93346447D01*
X155879024Y-94025471D01*
X155930136Y-93952478D01*
X156026264Y-93746331D01*
X156026269Y-93746317D01*
X156085139Y-93526610D01*
X156085141Y-93526599D01*
X156104966Y-93300002D01*
X156104966Y-93299997D01*
X156085141Y-93073400D01*
X156085139Y-93073389D01*
X156026269Y-92853681D01*
X156026264Y-92853668D01*
X155930136Y-92647521D01*
X155930132Y-92647513D01*
X155879025Y-92574526D01*
X155200000Y-93253551D01*
X155200000Y-93247339D01*
X155172741Y-93145606D01*
X155120080Y-93054394D01*
X155045606Y-92979920D01*
X154954394Y-92927259D01*
X154852661Y-92900000D01*
X154846448Y-92900000D01*
X155525472Y-92220974D01*
X155452478Y-92169863D01*
X155246331Y-92073735D01*
X155246317Y-92073730D01*
X155026610Y-92014860D01*
X155026599Y-92014858D01*
X154800002Y-91995034D01*
X154799998Y-91995034D01*
X154573400Y-92014858D01*
X154573389Y-92014860D01*
X154353682Y-92073730D01*
X154353673Y-92073734D01*
X154147516Y-92169866D01*
X154147512Y-92169868D01*
X154074526Y-92220973D01*
X154074526Y-92220974D01*
X154753553Y-92900000D01*
X154747339Y-92900000D01*
X154645606Y-92927259D01*
X154554394Y-92979920D01*
X154479920Y-93054394D01*
X154427259Y-93145606D01*
X154400000Y-93247339D01*
X154400000Y-93253552D01*
X153720974Y-92574526D01*
X153720973Y-92574526D01*
X153669868Y-92647512D01*
X153669866Y-92647516D01*
X153573734Y-92853673D01*
X153573731Y-92853681D01*
X153514860Y-93073389D01*
X153514858Y-93073400D01*
X153495034Y-93299997D01*
X149527694Y-93299997D01*
X149491800Y-93273919D01*
X149337533Y-93195315D01*
X149172865Y-93141811D01*
X149172857Y-93141809D01*
X149165276Y-93140608D01*
X149165276Y-94164724D01*
X149160251Y-94164724D01*
X149130181Y-94134654D01*
X149050371Y-94088576D01*
X148961354Y-94064724D01*
X148869198Y-94064724D01*
X148780181Y-94088576D01*
X148700371Y-94134654D01*
X148635206Y-94199819D01*
X148589128Y-94279629D01*
X148565276Y-94368646D01*
X148565276Y-94460802D01*
X148589128Y-94549819D01*
X148635206Y-94629629D01*
X148670301Y-94664724D01*
X148081972Y-94664724D01*
X148037179Y-94656351D01*
X147947737Y-94621701D01*
X147947732Y-94621700D01*
X147747252Y-94584224D01*
X147543300Y-94584224D01*
X147515004Y-94589513D01*
X147445490Y-94582481D01*
X147404540Y-94555305D01*
X147136819Y-94287584D01*
X147103334Y-94226261D01*
X147100500Y-94199903D01*
X147100500Y-94128152D01*
X147815276Y-94128152D01*
X147815276Y-94164724D01*
X148665276Y-94164724D01*
X148665276Y-93140608D01*
X148665275Y-93140608D01*
X148657694Y-93141809D01*
X148657686Y-93141811D01*
X148493018Y-93195315D01*
X148338751Y-93273919D01*
X148198673Y-93375691D01*
X148076243Y-93498121D01*
X147974471Y-93638199D01*
X147895867Y-93792466D01*
X147842361Y-93957139D01*
X147815276Y-94128152D01*
X147100500Y-94128152D01*
X147100500Y-85349097D01*
X147120185Y-85282058D01*
X147172989Y-85236303D01*
X147242147Y-85226359D01*
X147305703Y-85255384D01*
X147312181Y-85261416D01*
X148760678Y-86709913D01*
X148794163Y-86771236D01*
X148789179Y-86840928D01*
X148783483Y-86853887D01*
X148769778Y-86880784D01*
X148706523Y-87075461D01*
X148706523Y-87075464D01*
X148674500Y-87277648D01*
X148674500Y-87482351D01*
X148706522Y-87684534D01*
X148769781Y-87879223D01*
X148831575Y-88000499D01*
X148861744Y-88059709D01*
X148862715Y-88061613D01*
X148983028Y-88227213D01*
X149127786Y-88371971D01*
X149282749Y-88484556D01*
X149293390Y-88492287D01*
X149370819Y-88531739D01*
X149386080Y-88539515D01*
X149436876Y-88587490D01*
X149453671Y-88655311D01*
X149431134Y-88721446D01*
X149386080Y-88760485D01*
X149293386Y-88807715D01*
X149127786Y-88928028D01*
X148983028Y-89072786D01*
X148862715Y-89238386D01*
X148769781Y-89420776D01*
X148706522Y-89615465D01*
X148674500Y-89817648D01*
X148674500Y-90022351D01*
X148706522Y-90224534D01*
X148769781Y-90419223D01*
X148809784Y-90497732D01*
X148834177Y-90545606D01*
X148862715Y-90601613D01*
X148983028Y-90767213D01*
X149127786Y-90911971D01*
X149259250Y-91007483D01*
X149293390Y-91032287D01*
X149409607Y-91091503D01*
X149475776Y-91125218D01*
X149475778Y-91125218D01*
X149475781Y-91125220D01*
X149579431Y-91158898D01*
X149670465Y-91188477D01*
X149771557Y-91204488D01*
X149872648Y-91220500D01*
X149872649Y-91220500D01*
X150877351Y-91220500D01*
X150877352Y-91220500D01*
X151079534Y-91188477D01*
X151274219Y-91125220D01*
X151456610Y-91032287D01*
X151572797Y-90947873D01*
X151622213Y-90911971D01*
X151622215Y-90911968D01*
X151622219Y-90911966D01*
X151766966Y-90767219D01*
X151766968Y-90767215D01*
X151766971Y-90767213D01*
X151842770Y-90662883D01*
X151887287Y-90601610D01*
X151980220Y-90419219D01*
X152043477Y-90224534D01*
X152075500Y-90022352D01*
X152075500Y-89817648D01*
X152050162Y-89657671D01*
X152043477Y-89615465D01*
X151991730Y-89456206D01*
X151980220Y-89420781D01*
X151980218Y-89420778D01*
X151980218Y-89420776D01*
X151939106Y-89340090D01*
X151887287Y-89238390D01*
X151879556Y-89227749D01*
X151766971Y-89072786D01*
X151622213Y-88928028D01*
X151456614Y-88807715D01*
X151440491Y-88799500D01*
X151363917Y-88760483D01*
X151313123Y-88712511D01*
X151296328Y-88644690D01*
X151318865Y-88578555D01*
X151363917Y-88539516D01*
X151456610Y-88492287D01*
X151477770Y-88476913D01*
X151622213Y-88371971D01*
X151622215Y-88371968D01*
X151622219Y-88371966D01*
X151766966Y-88227219D01*
X151766968Y-88227215D01*
X151766971Y-88227213D01*
X151842770Y-88122883D01*
X151887287Y-88061610D01*
X151980220Y-87879219D01*
X152043477Y-87684534D01*
X152075500Y-87482352D01*
X152075500Y-87277648D01*
X152043477Y-87075466D01*
X152043476Y-87075464D01*
X151986433Y-86899903D01*
X151980220Y-86880781D01*
X151980218Y-86880778D01*
X151980218Y-86880776D01*
X151938805Y-86799500D01*
X151887287Y-86698390D01*
X151864639Y-86667217D01*
X151766971Y-86532786D01*
X151622213Y-86388028D01*
X151456614Y-86267715D01*
X151450006Y-86264348D01*
X151363917Y-86220483D01*
X151313123Y-86172511D01*
X151296328Y-86104690D01*
X151318865Y-86038555D01*
X151363917Y-85999516D01*
X151456610Y-85952287D01*
X151477770Y-85936913D01*
X151622213Y-85831971D01*
X151622215Y-85831968D01*
X151622219Y-85831966D01*
X151766966Y-85687219D01*
X151766968Y-85687215D01*
X151766971Y-85687213D01*
X151887284Y-85521614D01*
X151887285Y-85521613D01*
X151887287Y-85521610D01*
X151914498Y-85468204D01*
X151962472Y-85417409D01*
X152024983Y-85400500D01*
X152499903Y-85400500D01*
X152566942Y-85420185D01*
X152587583Y-85436818D01*
X154919479Y-87768715D01*
X154919480Y-87768716D01*
X155031284Y-87880520D01*
X155031286Y-87880521D01*
X155031290Y-87880524D01*
X155099986Y-87920185D01*
X155168216Y-87959577D01*
X155320943Y-88000500D01*
X156375821Y-88000500D01*
X156442860Y-88020185D01*
X156479674Y-88057795D01*
X156479849Y-88057669D01*
X156480706Y-88058849D01*
X156481548Y-88059709D01*
X156482716Y-88061616D01*
X156603028Y-88227213D01*
X156747786Y-88371971D01*
X156902749Y-88484556D01*
X156913390Y-88492287D01*
X156990819Y-88531739D01*
X157006080Y-88539515D01*
X157056876Y-88587490D01*
X157073671Y-88655311D01*
X157051134Y-88721446D01*
X157006080Y-88760485D01*
X156913386Y-88807715D01*
X156747786Y-88928028D01*
X156603028Y-89072786D01*
X156482715Y-89238386D01*
X156389781Y-89420776D01*
X156326522Y-89615465D01*
X156294500Y-89817648D01*
X156294500Y-90022351D01*
X156326522Y-90224534D01*
X156389781Y-90419223D01*
X156429784Y-90497732D01*
X156454177Y-90545606D01*
X156482715Y-90601613D01*
X156603028Y-90767213D01*
X156747786Y-90911971D01*
X156879250Y-91007483D01*
X156913390Y-91032287D01*
X157029607Y-91091503D01*
X157095776Y-91125218D01*
X157095778Y-91125218D01*
X157095781Y-91125220D01*
X157199431Y-91158898D01*
X157290465Y-91188477D01*
X157391557Y-91204488D01*
X157492648Y-91220500D01*
X157492649Y-91220500D01*
X158497351Y-91220500D01*
X158497352Y-91220500D01*
X158699534Y-91188477D01*
X158883669Y-91128647D01*
X158953504Y-91126652D01*
X159009663Y-91158898D01*
X159163181Y-91312416D01*
X159196666Y-91373739D01*
X159199500Y-91400097D01*
X159199500Y-92068306D01*
X159179815Y-92135345D01*
X159146623Y-92169881D01*
X158960859Y-92299953D01*
X158799954Y-92460858D01*
X158669432Y-92647265D01*
X158669431Y-92647267D01*
X158573261Y-92853502D01*
X158573258Y-92853511D01*
X158514366Y-93073302D01*
X158514364Y-93073313D01*
X158494532Y-93299998D01*
X158494532Y-93300001D01*
X158514364Y-93526686D01*
X158514366Y-93526697D01*
X158573258Y-93746488D01*
X158573261Y-93746497D01*
X158669431Y-93952732D01*
X158669432Y-93952734D01*
X158799954Y-94139141D01*
X158960858Y-94300045D01*
X158960861Y-94300047D01*
X159147266Y-94430568D01*
X159353504Y-94526739D01*
X159573308Y-94585635D01*
X159735230Y-94599801D01*
X159799998Y-94605468D01*
X159800000Y-94605468D01*
X159800002Y-94605468D01*
X159862522Y-94599998D01*
X160026692Y-94585635D01*
X160246496Y-94526739D01*
X160452734Y-94430568D01*
X160639139Y-94300047D01*
X160800047Y-94139139D01*
X160930568Y-93952734D01*
X161026739Y-93746496D01*
X161085635Y-93526692D01*
X161105468Y-93300000D01*
X161085635Y-93073308D01*
X161036518Y-92890000D01*
X161026741Y-92853511D01*
X161026738Y-92853502D01*
X160978439Y-92749925D01*
X160930568Y-92647266D01*
X160800047Y-92460861D01*
X160800045Y-92460858D01*
X160639140Y-92299953D01*
X160453377Y-92169881D01*
X160409752Y-92115304D01*
X160400500Y-92068306D01*
X160400500Y-91189059D01*
X160400501Y-91189046D01*
X160400501Y-91020945D01*
X160400501Y-91020943D01*
X160359577Y-90868215D01*
X160319883Y-90799464D01*
X160319883Y-90799462D01*
X160280524Y-90731290D01*
X160280521Y-90731286D01*
X160280520Y-90731284D01*
X160168716Y-90619480D01*
X160168715Y-90619479D01*
X160164385Y-90615149D01*
X160164374Y-90615139D01*
X159723232Y-90173997D01*
X159689747Y-90112674D01*
X159688440Y-90066923D01*
X159695500Y-90022352D01*
X159695500Y-89817648D01*
X159670162Y-89657671D01*
X159663477Y-89615465D01*
X159611730Y-89456206D01*
X159600220Y-89420781D01*
X159600218Y-89420778D01*
X159600218Y-89420776D01*
X159559106Y-89340090D01*
X159507287Y-89238390D01*
X159499556Y-89227749D01*
X159386971Y-89072786D01*
X159242213Y-88928028D01*
X159076614Y-88807715D01*
X159060491Y-88799500D01*
X158983917Y-88760483D01*
X158933123Y-88712511D01*
X158916328Y-88644690D01*
X158938865Y-88578555D01*
X158983917Y-88539516D01*
X159076610Y-88492287D01*
X159097770Y-88476913D01*
X159242213Y-88371971D01*
X159242215Y-88371968D01*
X159242219Y-88371966D01*
X159386966Y-88227219D01*
X159386968Y-88227215D01*
X159386971Y-88227213D01*
X159462770Y-88122883D01*
X159507287Y-88061610D01*
X159600220Y-87879219D01*
X159663477Y-87684534D01*
X159695500Y-87482352D01*
X159695500Y-87277648D01*
X159663477Y-87075466D01*
X159663476Y-87075464D01*
X159606433Y-86899903D01*
X159600220Y-86880781D01*
X159600218Y-86880778D01*
X159600218Y-86880776D01*
X159558805Y-86799500D01*
X159507287Y-86698390D01*
X159484639Y-86667217D01*
X159386971Y-86532786D01*
X159242213Y-86388028D01*
X159076614Y-86267715D01*
X159070006Y-86264348D01*
X158983917Y-86220483D01*
X158933123Y-86172511D01*
X158916328Y-86104690D01*
X158938865Y-86038555D01*
X158983917Y-85999516D01*
X159076610Y-85952287D01*
X159097770Y-85936913D01*
X159242213Y-85831971D01*
X159242215Y-85831968D01*
X159242219Y-85831966D01*
X159386966Y-85687219D01*
X159386968Y-85687215D01*
X159386971Y-85687213D01*
X159474523Y-85566706D01*
X159507287Y-85521610D01*
X159600220Y-85339219D01*
X159663477Y-85144534D01*
X159695500Y-84942352D01*
X159695500Y-84737648D01*
X159683082Y-84659246D01*
X159663477Y-84535465D01*
X159604080Y-84352661D01*
X159600220Y-84340781D01*
X159600218Y-84340778D01*
X159600218Y-84340776D01*
X159549085Y-84240423D01*
X159507287Y-84158390D01*
X159453403Y-84084224D01*
X159386971Y-83992786D01*
X159242213Y-83848028D01*
X159076614Y-83727715D01*
X159037026Y-83707544D01*
X158983917Y-83680483D01*
X158933123Y-83632511D01*
X158916328Y-83564690D01*
X158938865Y-83498555D01*
X158983917Y-83459516D01*
X159076610Y-83412287D01*
X159173225Y-83342093D01*
X159242213Y-83291971D01*
X159242215Y-83291968D01*
X159242219Y-83291966D01*
X159386966Y-83147219D01*
X159386968Y-83147215D01*
X159386971Y-83147213D01*
X159474499Y-83026739D01*
X159507287Y-82981610D01*
X159600220Y-82799219D01*
X159663477Y-82604534D01*
X159695500Y-82402352D01*
X159695500Y-82197648D01*
X159683027Y-82118900D01*
X159691981Y-82049609D01*
X159694018Y-82047188D01*
X159669477Y-82015466D01*
X159664380Y-81999228D01*
X159663477Y-81995465D01*
X159632458Y-81900000D01*
X159600220Y-81800781D01*
X159600218Y-81800778D01*
X159600218Y-81800776D01*
X159566503Y-81734607D01*
X159507287Y-81618390D01*
X159474537Y-81573313D01*
X159386971Y-81452786D01*
X159242213Y-81308028D01*
X159076613Y-81187715D01*
X159076612Y-81187714D01*
X159076610Y-81187713D01*
X159001613Y-81149500D01*
X158894223Y-81094781D01*
X158699534Y-81031522D01*
X158524995Y-81003878D01*
X158497352Y-80999500D01*
X157492648Y-80999500D01*
X157468329Y-81003351D01*
X157290465Y-81031522D01*
X157095776Y-81094781D01*
X156913386Y-81187715D01*
X156747786Y-81308028D01*
X156603028Y-81452786D01*
X156482715Y-81618386D01*
X156389781Y-81800776D01*
X156326522Y-81995465D01*
X156294500Y-82197648D01*
X156294500Y-82402351D01*
X156326522Y-82604534D01*
X156389781Y-82799223D01*
X156441181Y-82900099D01*
X156473481Y-82963492D01*
X156482715Y-82981613D01*
X156603028Y-83147213D01*
X156747786Y-83291971D01*
X156893549Y-83397872D01*
X156913390Y-83412287D01*
X157001511Y-83457187D01*
X157006080Y-83459515D01*
X157056876Y-83507490D01*
X157073671Y-83575311D01*
X157051134Y-83641446D01*
X157006080Y-83680485D01*
X156913386Y-83727715D01*
X156747786Y-83848028D01*
X156603028Y-83992786D01*
X156482715Y-84158386D01*
X156389781Y-84340776D01*
X156326522Y-84535465D01*
X156294500Y-84737648D01*
X156294500Y-84942351D01*
X156326522Y-85144534D01*
X156389781Y-85339223D01*
X156439510Y-85436819D01*
X156481629Y-85519483D01*
X156482715Y-85521613D01*
X156603028Y-85687213D01*
X156747786Y-85831971D01*
X156893200Y-85937618D01*
X156913390Y-85952287D01*
X157004840Y-85998883D01*
X157006080Y-85999515D01*
X157056876Y-86047490D01*
X157073671Y-86115311D01*
X157051134Y-86181446D01*
X157006080Y-86220485D01*
X156913386Y-86267715D01*
X156747786Y-86388028D01*
X156603028Y-86532786D01*
X156482713Y-86698388D01*
X156465691Y-86731796D01*
X156417716Y-86782591D01*
X156355207Y-86799500D01*
X155700098Y-86799500D01*
X155633059Y-86779815D01*
X155612417Y-86763181D01*
X153287590Y-84438355D01*
X153287588Y-84438352D01*
X153168717Y-84319481D01*
X153168709Y-84319475D01*
X153031790Y-84240426D01*
X153031786Y-84240424D01*
X153031784Y-84240423D01*
X152879057Y-84199500D01*
X152879056Y-84199500D01*
X151980337Y-84199500D01*
X151913298Y-84179815D01*
X151880019Y-84148385D01*
X151766971Y-83992787D01*
X151766967Y-83992782D01*
X151622217Y-83848032D01*
X151622212Y-83848028D01*
X151585325Y-83821228D01*
X151542659Y-83765898D01*
X151536680Y-83696285D01*
X151569286Y-83634490D01*
X151630124Y-83600133D01*
X151644956Y-83597620D01*
X151682379Y-83593596D01*
X151817086Y-83543354D01*
X151817093Y-83543350D01*
X151932187Y-83457190D01*
X151932190Y-83457187D01*
X152018350Y-83342093D01*
X152018354Y-83342086D01*
X152068596Y-83207379D01*
X152068598Y-83207372D01*
X152074999Y-83147844D01*
X152075000Y-83147827D01*
X152075000Y-82550000D01*
X150690686Y-82550000D01*
X150695080Y-82545606D01*
X150747741Y-82454394D01*
X150775000Y-82352661D01*
X150775000Y-82247339D01*
X150747741Y-82145606D01*
X150695080Y-82054394D01*
X150690686Y-82050000D01*
X152075000Y-82050000D01*
X152075000Y-81452172D01*
X152074999Y-81452155D01*
X152068598Y-81392627D01*
X152068596Y-81392620D01*
X152018354Y-81257913D01*
X152018350Y-81257906D01*
X151932190Y-81142812D01*
X151932187Y-81142809D01*
X151817093Y-81056649D01*
X151817086Y-81056645D01*
X151682379Y-81006403D01*
X151682372Y-81006401D01*
X151622844Y-81000000D01*
X150625000Y-81000000D01*
X150625000Y-81984314D01*
X150620606Y-81979920D01*
X150529394Y-81927259D01*
X150427661Y-81900000D01*
X150322339Y-81900000D01*
X150220606Y-81927259D01*
X150129394Y-81979920D01*
X150125000Y-81984314D01*
X150125000Y-81000000D01*
X149127155Y-81000000D01*
X149067627Y-81006401D01*
X149067620Y-81006403D01*
X148932913Y-81056645D01*
X148932906Y-81056649D01*
X148817812Y-81142809D01*
X148817809Y-81142812D01*
X148731649Y-81257906D01*
X148731645Y-81257913D01*
X148681403Y-81392620D01*
X148681401Y-81392627D01*
X148675000Y-81452155D01*
X148675000Y-82050000D01*
X150059314Y-82050000D01*
X150054920Y-82054394D01*
X150002259Y-82145606D01*
X149975000Y-82247339D01*
X149975000Y-82352661D01*
X150002259Y-82454394D01*
X150054920Y-82545606D01*
X150059314Y-82550000D01*
X148675000Y-82550000D01*
X148675000Y-83147844D01*
X148681401Y-83207372D01*
X148681403Y-83207379D01*
X148731645Y-83342086D01*
X148731649Y-83342093D01*
X148817809Y-83457187D01*
X148817812Y-83457190D01*
X148932906Y-83543350D01*
X148932913Y-83543354D01*
X149067620Y-83593596D01*
X149105043Y-83597620D01*
X149169595Y-83624358D01*
X149209443Y-83681750D01*
X149211937Y-83751576D01*
X149176285Y-83811665D01*
X149164675Y-83821227D01*
X149127789Y-83848026D01*
X149127782Y-83848032D01*
X148983028Y-83992786D01*
X148862715Y-84158386D01*
X148769781Y-84340776D01*
X148706523Y-84535464D01*
X148686917Y-84659246D01*
X148656987Y-84722380D01*
X148597675Y-84759311D01*
X148527813Y-84758313D01*
X148476763Y-84727528D01*
X146037499Y-82288264D01*
X146004014Y-82226941D01*
X146001653Y-82211399D01*
X145985635Y-82028308D01*
X145926739Y-81808504D01*
X145830568Y-81602266D01*
X145700047Y-81415861D01*
X145700045Y-81415858D01*
X145539141Y-81254954D01*
X145352734Y-81124432D01*
X145352732Y-81124431D01*
X145146497Y-81028261D01*
X145146488Y-81028258D01*
X144926697Y-80969366D01*
X144926693Y-80969365D01*
X144926692Y-80969365D01*
X144926691Y-80969364D01*
X144926686Y-80969364D01*
X144700002Y-80949532D01*
X144699998Y-80949532D01*
X144473313Y-80969364D01*
X144473302Y-80969366D01*
X144253511Y-81028258D01*
X144253502Y-81028261D01*
X144047267Y-81124431D01*
X144047265Y-81124432D01*
X143860858Y-81254954D01*
X143699954Y-81415858D01*
X143569432Y-81602265D01*
X143569431Y-81602267D01*
X143473261Y-81808502D01*
X143473258Y-81808511D01*
X143414366Y-82028302D01*
X143414364Y-82028313D01*
X143394532Y-82254998D01*
X143394532Y-82255001D01*
X143414364Y-82481686D01*
X143414366Y-82481697D01*
X143473258Y-82701487D01*
X143473261Y-82701497D01*
X143569431Y-82907732D01*
X143569432Y-82907734D01*
X143699954Y-83094141D01*
X143860858Y-83255045D01*
X143860861Y-83255047D01*
X144047266Y-83385568D01*
X144104565Y-83412287D01*
X144105275Y-83412618D01*
X144157714Y-83458791D01*
X144176866Y-83525984D01*
X144156650Y-83592865D01*
X144105275Y-83637381D01*
X144088272Y-83645310D01*
X144047267Y-83664431D01*
X144047265Y-83664432D01*
X143860858Y-83794954D01*
X143699954Y-83955858D01*
X143569432Y-84142265D01*
X143569431Y-84142267D01*
X143473261Y-84348502D01*
X143473258Y-84348511D01*
X143414366Y-84568302D01*
X143414364Y-84568313D01*
X143394532Y-84794998D01*
X143394532Y-84795001D01*
X143414364Y-85021686D01*
X143414366Y-85021697D01*
X143473258Y-85241488D01*
X143473261Y-85241497D01*
X143569431Y-85447732D01*
X143569432Y-85447734D01*
X143699954Y-85634141D01*
X143860858Y-85795045D01*
X143887640Y-85813798D01*
X144047266Y-85925568D01*
X144073108Y-85937618D01*
X144125547Y-85983791D01*
X144144698Y-86050985D01*
X144124482Y-86117866D01*
X144073109Y-86162381D01*
X144051386Y-86172511D01*
X144047264Y-86174433D01*
X143860858Y-86304954D01*
X143699954Y-86465858D01*
X143653092Y-86532786D01*
X143573382Y-86646624D01*
X143518808Y-86690248D01*
X143471809Y-86699500D01*
X141952913Y-86699500D01*
X141885874Y-86679815D01*
X141865232Y-86663181D01*
X140721533Y-85519483D01*
X140721531Y-85519481D01*
X140584600Y-85440423D01*
X140431872Y-85399499D01*
X140273758Y-85399499D01*
X140266162Y-85399499D01*
X140266146Y-85399500D01*
X139236779Y-85399500D01*
X139169740Y-85379815D01*
X139137825Y-85350227D01*
X139032038Y-85210142D01*
X138881317Y-85072743D01*
X138881315Y-85072741D01*
X138707918Y-84965379D01*
X138707911Y-84965375D01*
X138589436Y-84919478D01*
X138535717Y-84898667D01*
X138480317Y-84856095D01*
X138456726Y-84790328D01*
X138472437Y-84722248D01*
X138522461Y-84673469D01*
X138542194Y-84665110D01*
X138637531Y-84634132D01*
X138791800Y-84555528D01*
X138931878Y-84453756D01*
X139054308Y-84331326D01*
X139156080Y-84191248D01*
X139234684Y-84036981D01*
X139288190Y-83872308D01*
X139315276Y-83701295D01*
X139315276Y-83664724D01*
X138460251Y-83664724D01*
X138495346Y-83629629D01*
X138541424Y-83549819D01*
X138565276Y-83460802D01*
X138565276Y-83368646D01*
X138541424Y-83279629D01*
X138495346Y-83199819D01*
X138460251Y-83164724D01*
X138465276Y-83164724D01*
X139315276Y-83164724D01*
X139315276Y-83128152D01*
X139288190Y-82957139D01*
X139234684Y-82792466D01*
X139156080Y-82638199D01*
X139054308Y-82498121D01*
X138931878Y-82375691D01*
X138791800Y-82273919D01*
X138637533Y-82195315D01*
X138472865Y-82141811D01*
X138472857Y-82141809D01*
X138465276Y-82140608D01*
X138465276Y-83164724D01*
X138460251Y-83164724D01*
X138430181Y-83134654D01*
X138350371Y-83088576D01*
X138261354Y-83064724D01*
X138169198Y-83064724D01*
X138080181Y-83088576D01*
X138000371Y-83134654D01*
X137935206Y-83199819D01*
X137889128Y-83279629D01*
X137865276Y-83368646D01*
X137865276Y-83460802D01*
X137889128Y-83549819D01*
X137935206Y-83629629D01*
X137970301Y-83664724D01*
X137381972Y-83664724D01*
X137337179Y-83656351D01*
X137247737Y-83621701D01*
X137247732Y-83621700D01*
X137047252Y-83584224D01*
X136843300Y-83584224D01*
X136642820Y-83621700D01*
X136642817Y-83621700D01*
X136642817Y-83621701D01*
X136452640Y-83695375D01*
X136452633Y-83695379D01*
X136279236Y-83802741D01*
X136279234Y-83802743D01*
X136128513Y-83940142D01*
X136056918Y-84034951D01*
X136000809Y-84076587D01*
X135957964Y-84084224D01*
X135561946Y-84084224D01*
X135561930Y-84084223D01*
X135554334Y-84084223D01*
X135396219Y-84084223D01*
X135326506Y-84102903D01*
X135243490Y-84125147D01*
X135243485Y-84125150D01*
X135106566Y-84204199D01*
X135106558Y-84204205D01*
X133542705Y-85768058D01*
X133481382Y-85801543D01*
X133422931Y-85800152D01*
X133326697Y-85774366D01*
X133326693Y-85774365D01*
X133326692Y-85774365D01*
X133326691Y-85774364D01*
X133326686Y-85774364D01*
X133100002Y-85754532D01*
X133099998Y-85754532D01*
X132873313Y-85774364D01*
X132873302Y-85774366D01*
X132653511Y-85833258D01*
X132653502Y-85833261D01*
X132447267Y-85929431D01*
X132447265Y-85929432D01*
X132260858Y-86059954D01*
X132099954Y-86220858D01*
X131969432Y-86407265D01*
X131969431Y-86407267D01*
X131873261Y-86613502D01*
X131873258Y-86613511D01*
X131814366Y-86833302D01*
X131814364Y-86833313D01*
X131794532Y-87059998D01*
X131794532Y-87060001D01*
X131814364Y-87286686D01*
X131814366Y-87286697D01*
X131873258Y-87506488D01*
X131873261Y-87506497D01*
X131969431Y-87712732D01*
X131969432Y-87712734D01*
X132099954Y-87899141D01*
X132260858Y-88060045D01*
X132263102Y-88061616D01*
X132447266Y-88190568D01*
X132505275Y-88217618D01*
X132557714Y-88263791D01*
X132576866Y-88330984D01*
X132556650Y-88397865D01*
X132505275Y-88442382D01*
X132447267Y-88469431D01*
X132447265Y-88469432D01*
X132260858Y-88599954D01*
X132099954Y-88760858D01*
X131969432Y-88947265D01*
X131969431Y-88947267D01*
X131873261Y-89153502D01*
X131873258Y-89153511D01*
X131814366Y-89373302D01*
X131814364Y-89373313D01*
X131794532Y-89599998D01*
X131794532Y-89600001D01*
X131814364Y-89826686D01*
X131814366Y-89826697D01*
X131873258Y-90046488D01*
X131873261Y-90046497D01*
X131969431Y-90252732D01*
X131969432Y-90252734D01*
X132099954Y-90439141D01*
X132260858Y-90600045D01*
X132278387Y-90612319D01*
X132446624Y-90730118D01*
X132490248Y-90784693D01*
X132499500Y-90831692D01*
X132499500Y-91113330D01*
X132499499Y-91113348D01*
X132499499Y-91279054D01*
X132499498Y-91279054D01*
X132499499Y-91279057D01*
X132540423Y-91431785D01*
X132567501Y-91478685D01*
X132569358Y-91481900D01*
X132569359Y-91481904D01*
X132569360Y-91481904D01*
X132619479Y-91568714D01*
X132619481Y-91568717D01*
X132738349Y-91687585D01*
X132738355Y-91687590D01*
X133263181Y-92212416D01*
X133296666Y-92273739D01*
X133299500Y-92300097D01*
X133299500Y-94235500D01*
X133279815Y-94302539D01*
X133227011Y-94348294D01*
X133175500Y-94359500D01*
X131680097Y-94359500D01*
X131613058Y-94339815D01*
X131592416Y-94323181D01*
X131436819Y-94167584D01*
X131403334Y-94106261D01*
X131400500Y-94079903D01*
X131400500Y-87820945D01*
X131400500Y-87820943D01*
X131359577Y-87668216D01*
X131302132Y-87568717D01*
X131280524Y-87531290D01*
X131280521Y-87531286D01*
X131280520Y-87531284D01*
X131168716Y-87419480D01*
X131168715Y-87419479D01*
X131164385Y-87415149D01*
X131164374Y-87415139D01*
X130736819Y-86987584D01*
X130703334Y-86926261D01*
X130700500Y-86899903D01*
X130700500Y-83974499D01*
X130720185Y-83907460D01*
X130772989Y-83861705D01*
X130824500Y-83850499D01*
X130997871Y-83850499D01*
X130997872Y-83850499D01*
X131057483Y-83844091D01*
X131192331Y-83793796D01*
X131307546Y-83707546D01*
X131393796Y-83592331D01*
X131443002Y-83460401D01*
X131484872Y-83404468D01*
X131550337Y-83380050D01*
X131618610Y-83394901D01*
X131646865Y-83416053D01*
X131768917Y-83538105D01*
X131962421Y-83673600D01*
X132176507Y-83773429D01*
X132176516Y-83773433D01*
X132390000Y-83830634D01*
X132390000Y-82933012D01*
X132447007Y-82965925D01*
X132574174Y-83000000D01*
X132705826Y-83000000D01*
X132832993Y-82965925D01*
X132890000Y-82933012D01*
X132890000Y-83830633D01*
X133103483Y-83773433D01*
X133103492Y-83773429D01*
X133317578Y-83673600D01*
X133511082Y-83538105D01*
X133678105Y-83371082D01*
X133813600Y-83177578D01*
X133836648Y-83128152D01*
X137115276Y-83128152D01*
X137115276Y-83164724D01*
X137965276Y-83164724D01*
X137965276Y-82140608D01*
X137965275Y-82140608D01*
X137957694Y-82141809D01*
X137957686Y-82141811D01*
X137793018Y-82195315D01*
X137638751Y-82273919D01*
X137498673Y-82375691D01*
X137376243Y-82498121D01*
X137274471Y-82638199D01*
X137195867Y-82792466D01*
X137142361Y-82957139D01*
X137115276Y-83128152D01*
X133836648Y-83128152D01*
X133913429Y-82963492D01*
X133913432Y-82963486D01*
X133970636Y-82750000D01*
X133073012Y-82750000D01*
X133105925Y-82692993D01*
X133140000Y-82565826D01*
X133140000Y-82434174D01*
X133105925Y-82307007D01*
X133073012Y-82250000D01*
X133970636Y-82250000D01*
X133970635Y-82249999D01*
X133913432Y-82036513D01*
X133913429Y-82036507D01*
X133813600Y-81822422D01*
X133813599Y-81822420D01*
X133678113Y-81628926D01*
X133678108Y-81628920D01*
X133511082Y-81461894D01*
X133317578Y-81326399D01*
X133103492Y-81226570D01*
X133103486Y-81226567D01*
X132890000Y-81169364D01*
X132890000Y-82066988D01*
X132832993Y-82034075D01*
X132705826Y-82000000D01*
X132574174Y-82000000D01*
X132447007Y-82034075D01*
X132390000Y-82066988D01*
X132390000Y-81169364D01*
X132389999Y-81169364D01*
X132176513Y-81226567D01*
X132176507Y-81226570D01*
X131962422Y-81326399D01*
X131962420Y-81326400D01*
X131768926Y-81461886D01*
X131646865Y-81583947D01*
X131585542Y-81617431D01*
X131515850Y-81612447D01*
X131459917Y-81570575D01*
X131443002Y-81539598D01*
X131393797Y-81407671D01*
X131393793Y-81407664D01*
X131307547Y-81292455D01*
X131307544Y-81292452D01*
X131192335Y-81206206D01*
X131192328Y-81206202D01*
X131057482Y-81155908D01*
X131057483Y-81155908D01*
X130997883Y-81149501D01*
X130997881Y-81149500D01*
X130997873Y-81149500D01*
X130997864Y-81149500D01*
X129202129Y-81149500D01*
X129202123Y-81149501D01*
X129142516Y-81155908D01*
X129007671Y-81206202D01*
X129007664Y-81206206D01*
X128892455Y-81292452D01*
X128892452Y-81292455D01*
X128806206Y-81407664D01*
X128806202Y-81407671D01*
X128755908Y-81542517D01*
X128749501Y-81602116D01*
X128749500Y-81602135D01*
X128749500Y-83397870D01*
X128749501Y-83397876D01*
X128755908Y-83457483D01*
X128806202Y-83592328D01*
X128806206Y-83592335D01*
X128892452Y-83707544D01*
X128892455Y-83707547D01*
X129007664Y-83793793D01*
X129007671Y-83793797D01*
X129031657Y-83802743D01*
X129142517Y-83844091D01*
X129202127Y-83850500D01*
X129375500Y-83850499D01*
X129442539Y-83870183D01*
X129488294Y-83922987D01*
X129499500Y-83974499D01*
X129499500Y-87113330D01*
X129499499Y-87113348D01*
X129499499Y-87279054D01*
X129499498Y-87279054D01*
X129540424Y-87431789D01*
X129540425Y-87431790D01*
X129567019Y-87477851D01*
X129567020Y-87477852D01*
X129619479Y-87568714D01*
X129619481Y-87568717D01*
X129738349Y-87687585D01*
X129738355Y-87687590D01*
X130163181Y-88112416D01*
X130196666Y-88173739D01*
X130199500Y-88200097D01*
X130199500Y-93369987D01*
X130179815Y-93437026D01*
X130127011Y-93482781D01*
X130057853Y-93492725D01*
X130009461Y-93471814D01*
X130008158Y-93473889D01*
X130001063Y-93469431D01*
X129952356Y-93438826D01*
X129849523Y-93374211D01*
X129679254Y-93314631D01*
X129679249Y-93314630D01*
X129500004Y-93294435D01*
X129499996Y-93294435D01*
X129320750Y-93314630D01*
X129320745Y-93314631D01*
X129150476Y-93374211D01*
X128997737Y-93470184D01*
X128870184Y-93597737D01*
X128774211Y-93750476D01*
X128714631Y-93920745D01*
X128714630Y-93920750D01*
X128694435Y-94099996D01*
X128694435Y-94100003D01*
X128714630Y-94279249D01*
X128714631Y-94279254D01*
X128774211Y-94449523D01*
X128794432Y-94481704D01*
X128868763Y-94600001D01*
X128870185Y-94602263D01*
X128872445Y-94605097D01*
X128873334Y-94607275D01*
X128873889Y-94608158D01*
X128873734Y-94608255D01*
X128898855Y-94669783D01*
X128899500Y-94682412D01*
X128899500Y-98829588D01*
X128879815Y-98896627D01*
X128827011Y-98942382D01*
X128757853Y-98952326D01*
X128694297Y-98923301D01*
X128656523Y-98864523D01*
X128655725Y-98861681D01*
X128626741Y-98753511D01*
X128626738Y-98753502D01*
X128540569Y-98568714D01*
X128530568Y-98547266D01*
X128417048Y-98385141D01*
X128400045Y-98360858D01*
X128239141Y-98199954D01*
X128052734Y-98069432D01*
X128052732Y-98069431D01*
X127846497Y-97973261D01*
X127846488Y-97973258D01*
X127626697Y-97914366D01*
X127626693Y-97914365D01*
X127626692Y-97914365D01*
X127626691Y-97914364D01*
X127626686Y-97914364D01*
X127400002Y-97894532D01*
X127399998Y-97894532D01*
X127173313Y-97914364D01*
X127173302Y-97914366D01*
X126953511Y-97973258D01*
X126953502Y-97973261D01*
X126747267Y-98069431D01*
X126747265Y-98069432D01*
X126560858Y-98199954D01*
X126399954Y-98360858D01*
X126342911Y-98442326D01*
X126269881Y-98546624D01*
X126215307Y-98590248D01*
X126168308Y-98599500D01*
X124074499Y-98599500D01*
X124007460Y-98579815D01*
X123961705Y-98527011D01*
X123950499Y-98475500D01*
X123950499Y-98402129D01*
X123950498Y-98402123D01*
X123950497Y-98402116D01*
X123944091Y-98342517D01*
X123929110Y-98302352D01*
X123893797Y-98207671D01*
X123893793Y-98207664D01*
X123807547Y-98092455D01*
X123807544Y-98092452D01*
X123692335Y-98006206D01*
X123692328Y-98006202D01*
X123557482Y-97955908D01*
X123557483Y-97955908D01*
X123497883Y-97949501D01*
X123497881Y-97949500D01*
X123497873Y-97949500D01*
X123497864Y-97949500D01*
X121702129Y-97949500D01*
X121702123Y-97949501D01*
X121642516Y-97955908D01*
X121507671Y-98006202D01*
X121507664Y-98006206D01*
X121392455Y-98092452D01*
X121392452Y-98092455D01*
X121306206Y-98207664D01*
X121306202Y-98207671D01*
X121255908Y-98342517D01*
X121251326Y-98385139D01*
X121249501Y-98402123D01*
X121249500Y-98402135D01*
X121249500Y-100197870D01*
X121249501Y-100197876D01*
X121255908Y-100257483D01*
X121306202Y-100392328D01*
X121306206Y-100392335D01*
X121392452Y-100507544D01*
X121392455Y-100507547D01*
X121507664Y-100593793D01*
X121507671Y-100593797D01*
X121549591Y-100609432D01*
X121639598Y-100643002D01*
X121695531Y-100684873D01*
X121719949Y-100750337D01*
X121705098Y-100818610D01*
X121683947Y-100846865D01*
X121561886Y-100968926D01*
X121426400Y-101162420D01*
X121426399Y-101162422D01*
X121326570Y-101376507D01*
X121326567Y-101376513D01*
X121269364Y-101589999D01*
X121269364Y-101590000D01*
X122166988Y-101590000D01*
X122134075Y-101647007D01*
X122100000Y-101774174D01*
X122100000Y-101905826D01*
X122134075Y-102032993D01*
X122166988Y-102090000D01*
X121269364Y-102090000D01*
X121326567Y-102303486D01*
X121326570Y-102303492D01*
X121426399Y-102517578D01*
X121561894Y-102711082D01*
X121728917Y-102878105D01*
X121922421Y-103013600D01*
X122136507Y-103113429D01*
X122136516Y-103113433D01*
X122350000Y-103170634D01*
X122350000Y-102273012D01*
X122407007Y-102305925D01*
X122534174Y-102340000D01*
X122665826Y-102340000D01*
X122792993Y-102305925D01*
X122850000Y-102273012D01*
X122850000Y-103170633D01*
X123063483Y-103113433D01*
X123063492Y-103113429D01*
X123277578Y-103013600D01*
X123471082Y-102878105D01*
X123638105Y-102711082D01*
X123773600Y-102517578D01*
X123873429Y-102303492D01*
X123873432Y-102303486D01*
X123930636Y-102090000D01*
X123033012Y-102090000D01*
X123065925Y-102032993D01*
X123100000Y-101905826D01*
X123100000Y-101774174D01*
X123065925Y-101647007D01*
X123033012Y-101590000D01*
X123930636Y-101590000D01*
X123930635Y-101589999D01*
X123873432Y-101376513D01*
X123873429Y-101376507D01*
X123773600Y-101162422D01*
X123773599Y-101162420D01*
X123638113Y-100968926D01*
X123638108Y-100968920D01*
X123516053Y-100846865D01*
X123482568Y-100785542D01*
X123487552Y-100715850D01*
X123529424Y-100659917D01*
X123560400Y-100643002D01*
X123692331Y-100593796D01*
X123807546Y-100507546D01*
X123893796Y-100392331D01*
X123944091Y-100257483D01*
X123950500Y-100197873D01*
X123950500Y-99924500D01*
X123970185Y-99857461D01*
X124022989Y-99811706D01*
X124074500Y-99800500D01*
X126168308Y-99800500D01*
X126235347Y-99820185D01*
X126269880Y-99853374D01*
X126319683Y-99924500D01*
X126399954Y-100039141D01*
X126560858Y-100200045D01*
X126560861Y-100200047D01*
X126747266Y-100330568D01*
X126772758Y-100342455D01*
X126805275Y-100357618D01*
X126857714Y-100403791D01*
X126876866Y-100470984D01*
X126856650Y-100537865D01*
X126805275Y-100582382D01*
X126747267Y-100609431D01*
X126747265Y-100609432D01*
X126560858Y-100739954D01*
X126399954Y-100900858D01*
X126269432Y-101087265D01*
X126269431Y-101087267D01*
X126173261Y-101293502D01*
X126173258Y-101293511D01*
X126114366Y-101513302D01*
X126114364Y-101513313D01*
X126094532Y-101739998D01*
X126094532Y-101740001D01*
X126114364Y-101966686D01*
X126114366Y-101966697D01*
X126173258Y-102186488D01*
X126173261Y-102186497D01*
X126269431Y-102392732D01*
X126269432Y-102392734D01*
X126399954Y-102579141D01*
X126560858Y-102740045D01*
X126607693Y-102772839D01*
X126747266Y-102870568D01*
X126953504Y-102966739D01*
X127173308Y-103025635D01*
X127327682Y-103039141D01*
X127399998Y-103045468D01*
X127400000Y-103045468D01*
X127400002Y-103045468D01*
X127456673Y-103040509D01*
X127626692Y-103025635D01*
X127846496Y-102966739D01*
X128052734Y-102870568D01*
X128239139Y-102740047D01*
X128400047Y-102579139D01*
X128530568Y-102392734D01*
X128626739Y-102186496D01*
X128655725Y-102078317D01*
X128692090Y-102018657D01*
X128754936Y-101988128D01*
X128824312Y-101996422D01*
X128878190Y-102040908D01*
X128899465Y-102107459D01*
X128899500Y-102110411D01*
X128899500Y-105099902D01*
X128879815Y-105166941D01*
X128863181Y-105187583D01*
X127838762Y-106212001D01*
X127777439Y-106245486D01*
X127718988Y-106244095D01*
X127626697Y-106219366D01*
X127626693Y-106219365D01*
X127626692Y-106219365D01*
X127626691Y-106219364D01*
X127626686Y-106219364D01*
X127400002Y-106199532D01*
X127399998Y-106199532D01*
X127173313Y-106219364D01*
X127173302Y-106219366D01*
X126953511Y-106278258D01*
X126953502Y-106278261D01*
X126747267Y-106374431D01*
X126747265Y-106374432D01*
X126560858Y-106504954D01*
X126399954Y-106665858D01*
X126269432Y-106852265D01*
X126269431Y-106852267D01*
X126173261Y-107058502D01*
X126173258Y-107058511D01*
X126114366Y-107278302D01*
X126114364Y-107278313D01*
X126094532Y-107504998D01*
X126094532Y-107505001D01*
X126114364Y-107731686D01*
X126114366Y-107731697D01*
X126173258Y-107951488D01*
X126173261Y-107951497D01*
X126269431Y-108157732D01*
X126269432Y-108157734D01*
X126399954Y-108344141D01*
X126560858Y-108505045D01*
X126560861Y-108505047D01*
X126747266Y-108635568D01*
X126805275Y-108662618D01*
X126857714Y-108708791D01*
X126876866Y-108775984D01*
X126856650Y-108842865D01*
X126805275Y-108887382D01*
X126747267Y-108914431D01*
X126747265Y-108914432D01*
X126560858Y-109044954D01*
X126399954Y-109205858D01*
X126376650Y-109239141D01*
X126273382Y-109386624D01*
X126218808Y-109430248D01*
X126171809Y-109439500D01*
X123889091Y-109439500D01*
X123822052Y-109419815D01*
X123776711Y-109367909D01*
X123774037Y-109362175D01*
X123774034Y-109362170D01*
X123774033Y-109362169D01*
X123687889Y-109239141D01*
X123638496Y-109168600D01*
X123638495Y-109168599D01*
X123516567Y-109046671D01*
X123483084Y-108985351D01*
X123488068Y-108915659D01*
X123529939Y-108859725D01*
X123560915Y-108842810D01*
X123692331Y-108793796D01*
X123807546Y-108707546D01*
X123893796Y-108592331D01*
X123944091Y-108457483D01*
X123950500Y-108397873D01*
X123950499Y-106602128D01*
X123944091Y-106542517D01*
X123943309Y-106540421D01*
X123893797Y-106407671D01*
X123893793Y-106407664D01*
X123807547Y-106292455D01*
X123807544Y-106292452D01*
X123692335Y-106206206D01*
X123692328Y-106206202D01*
X123557482Y-106155908D01*
X123557483Y-106155908D01*
X123497883Y-106149501D01*
X123497881Y-106149500D01*
X123497873Y-106149500D01*
X123497864Y-106149500D01*
X121702129Y-106149500D01*
X121702123Y-106149501D01*
X121642516Y-106155908D01*
X121507671Y-106206202D01*
X121507664Y-106206206D01*
X121392455Y-106292452D01*
X121392452Y-106292455D01*
X121306206Y-106407664D01*
X121306202Y-106407671D01*
X121255908Y-106542517D01*
X121249501Y-106602116D01*
X121249501Y-106602123D01*
X121249500Y-106602135D01*
X121249500Y-108397870D01*
X121249501Y-108397876D01*
X121255908Y-108457483D01*
X121306202Y-108592328D01*
X121306206Y-108592335D01*
X121392452Y-108707544D01*
X121392455Y-108707547D01*
X121507664Y-108793793D01*
X121507671Y-108793797D01*
X121639081Y-108842810D01*
X121695015Y-108884681D01*
X121719432Y-108950145D01*
X121704580Y-109018418D01*
X121683430Y-109046673D01*
X121561503Y-109168600D01*
X121425965Y-109362169D01*
X121425964Y-109362171D01*
X121338968Y-109548735D01*
X121327309Y-109573739D01*
X121326098Y-109576335D01*
X121326094Y-109576344D01*
X121264938Y-109804586D01*
X121264936Y-109804596D01*
X121244341Y-110039999D01*
X121244341Y-110040000D01*
X121264936Y-110275403D01*
X121264938Y-110275413D01*
X121326094Y-110503655D01*
X121326096Y-110503659D01*
X121326097Y-110503663D01*
X121394335Y-110650000D01*
X121425965Y-110717830D01*
X121425967Y-110717834D01*
X121481854Y-110797648D01*
X121561505Y-110911401D01*
X121728599Y-111078495D01*
X121824443Y-111145606D01*
X121922165Y-111214032D01*
X121922167Y-111214033D01*
X121922170Y-111214035D01*
X122136337Y-111313903D01*
X122136343Y-111313904D01*
X122136344Y-111313905D01*
X122191285Y-111328626D01*
X122364592Y-111375063D01*
X122552918Y-111391539D01*
X122599999Y-111395659D01*
X122600000Y-111395659D01*
X122600001Y-111395659D01*
X122639234Y-111392226D01*
X122835408Y-111375063D01*
X123063663Y-111313903D01*
X123277830Y-111214035D01*
X123471401Y-111078495D01*
X123638495Y-110911401D01*
X123774035Y-110717830D01*
X123776707Y-110712097D01*
X123822878Y-110659658D01*
X123889091Y-110640500D01*
X126164807Y-110640500D01*
X126231846Y-110660185D01*
X126266382Y-110693377D01*
X126269430Y-110697730D01*
X126269432Y-110697734D01*
X126313634Y-110760861D01*
X126399954Y-110884141D01*
X126560858Y-111045045D01*
X126606304Y-111076866D01*
X126747266Y-111175568D01*
X126953504Y-111271739D01*
X126953509Y-111271740D01*
X126953511Y-111271741D01*
X127006415Y-111285916D01*
X127173308Y-111330635D01*
X127335230Y-111344801D01*
X127399998Y-111350468D01*
X127400000Y-111350468D01*
X127400002Y-111350468D01*
X127456673Y-111345509D01*
X127626692Y-111330635D01*
X127846496Y-111271739D01*
X128052734Y-111175568D01*
X128239139Y-111045047D01*
X128400047Y-110884139D01*
X128530568Y-110697734D01*
X128626739Y-110491496D01*
X128685635Y-110271692D01*
X128705468Y-110045000D01*
X128705030Y-110039999D01*
X128699801Y-109980230D01*
X128685635Y-109818308D01*
X128633830Y-109624969D01*
X128626741Y-109598511D01*
X128626738Y-109598502D01*
X128617350Y-109578369D01*
X128530568Y-109392266D01*
X128410608Y-109220944D01*
X128400045Y-109205858D01*
X128239141Y-109044954D01*
X128052734Y-108914432D01*
X128052728Y-108914429D01*
X127994725Y-108887382D01*
X127942285Y-108841210D01*
X127923133Y-108774017D01*
X127943348Y-108707135D01*
X127994725Y-108662618D01*
X128052734Y-108635568D01*
X128239139Y-108505047D01*
X128400047Y-108344139D01*
X128530568Y-108157734D01*
X128626739Y-107951496D01*
X128685635Y-107731692D01*
X128705468Y-107505000D01*
X128685635Y-107278308D01*
X128658790Y-107178120D01*
X128660453Y-107108274D01*
X128690882Y-107058351D01*
X129858504Y-105890729D01*
X129858514Y-105890722D01*
X129862296Y-105886939D01*
X129868363Y-105883623D01*
X129890727Y-105867505D01*
X129890735Y-105867501D01*
X129892266Y-105870563D01*
X129923610Y-105853438D01*
X129993303Y-105858404D01*
X130037681Y-105886916D01*
X130335139Y-106184374D01*
X130335160Y-106184397D01*
X130451276Y-106300513D01*
X130451280Y-106300516D01*
X130451284Y-106300520D01*
X130451286Y-106300521D01*
X130451951Y-106301031D01*
X130452727Y-106301964D01*
X130457031Y-106306268D01*
X130456635Y-106306663D01*
X130486956Y-106343117D01*
X130491629Y-106352288D01*
X130504526Y-106420957D01*
X130478251Y-106485698D01*
X130421145Y-106525955D01*
X130413240Y-106528358D01*
X130368220Y-106540421D01*
X130368209Y-106540426D01*
X130231290Y-106619475D01*
X130231282Y-106619481D01*
X129719481Y-107131282D01*
X129719479Y-107131285D01*
X129702147Y-107161305D01*
X129675093Y-107208165D01*
X129640423Y-107268215D01*
X129599499Y-107420943D01*
X129599499Y-107420945D01*
X129599499Y-107589046D01*
X129599500Y-107589059D01*
X129599500Y-113668306D01*
X129579815Y-113735345D01*
X129546623Y-113769881D01*
X129360859Y-113899953D01*
X129199954Y-114060858D01*
X129069432Y-114247265D01*
X129069431Y-114247267D01*
X128973261Y-114453502D01*
X128973258Y-114453511D01*
X128914366Y-114673302D01*
X128914364Y-114673313D01*
X128894532Y-114899998D01*
X128894532Y-114900001D01*
X128914364Y-115126686D01*
X128914366Y-115126697D01*
X128973258Y-115346488D01*
X128973261Y-115346497D01*
X129069431Y-115552732D01*
X129069432Y-115552734D01*
X129199954Y-115739141D01*
X129360858Y-115900045D01*
X129360861Y-115900047D01*
X129547266Y-116030568D01*
X129594797Y-116052732D01*
X129605275Y-116057618D01*
X129657714Y-116103791D01*
X129676866Y-116170984D01*
X129656650Y-116237865D01*
X129605275Y-116282382D01*
X129547267Y-116309431D01*
X129547265Y-116309432D01*
X129360858Y-116439954D01*
X129199954Y-116600858D01*
X129069432Y-116787265D01*
X129069431Y-116787267D01*
X128973261Y-116993502D01*
X128973258Y-116993511D01*
X128914366Y-117213302D01*
X128914364Y-117213313D01*
X128894532Y-117439998D01*
X128894532Y-117440001D01*
X128914364Y-117666686D01*
X128914366Y-117666697D01*
X128973258Y-117886488D01*
X128973261Y-117886497D01*
X129069431Y-118092732D01*
X129069432Y-118092734D01*
X129199954Y-118279141D01*
X129360858Y-118440045D01*
X129360861Y-118440047D01*
X129547266Y-118570568D01*
X129753504Y-118666739D01*
X129973308Y-118725635D01*
X130135230Y-118739801D01*
X130199998Y-118745468D01*
X130200000Y-118745468D01*
X130200002Y-118745468D01*
X130256673Y-118740509D01*
X130426692Y-118725635D01*
X130646496Y-118666739D01*
X130852734Y-118570568D01*
X131039139Y-118440047D01*
X131200047Y-118279139D01*
X131330118Y-118093375D01*
X131384693Y-118049752D01*
X131431692Y-118040500D01*
X132373331Y-118040500D01*
X132373347Y-118040501D01*
X132380943Y-118040501D01*
X132539054Y-118040501D01*
X132539057Y-118040501D01*
X132691785Y-117999577D01*
X132741904Y-117970639D01*
X132828716Y-117920520D01*
X132940520Y-117808716D01*
X132940520Y-117808714D01*
X132950728Y-117798507D01*
X132950729Y-117798504D01*
X133712416Y-117036819D01*
X133773739Y-117003334D01*
X133800097Y-117000500D01*
X134750501Y-117000500D01*
X134817540Y-117020185D01*
X134863295Y-117072989D01*
X134874501Y-117124500D01*
X134874501Y-117297876D01*
X134880908Y-117357483D01*
X134931202Y-117492328D01*
X134931206Y-117492335D01*
X135017452Y-117607544D01*
X135017455Y-117607547D01*
X135132664Y-117693793D01*
X135132671Y-117693797D01*
X135267517Y-117744091D01*
X135267516Y-117744091D01*
X135274444Y-117744835D01*
X135327127Y-117750500D01*
X137122872Y-117750499D01*
X137182483Y-117744091D01*
X137317331Y-117693796D01*
X137432546Y-117607546D01*
X137518796Y-117492331D01*
X137568002Y-117360401D01*
X137609872Y-117304468D01*
X137675337Y-117280050D01*
X137743610Y-117294901D01*
X137771865Y-117316053D01*
X137893917Y-117438105D01*
X138087421Y-117573600D01*
X138301507Y-117673429D01*
X138301516Y-117673433D01*
X138515000Y-117730634D01*
X138515000Y-116833012D01*
X138572007Y-116865925D01*
X138699174Y-116900000D01*
X138830826Y-116900000D01*
X138957993Y-116865925D01*
X139015000Y-116833012D01*
X139015000Y-117730633D01*
X139228483Y-117673433D01*
X139228492Y-117673429D01*
X139442578Y-117573600D01*
X139636082Y-117438105D01*
X139803105Y-117271082D01*
X139938600Y-117077578D01*
X140038429Y-116863492D01*
X140038432Y-116863486D01*
X140095636Y-116650000D01*
X139198012Y-116650000D01*
X139230925Y-116592993D01*
X139265000Y-116465826D01*
X139265000Y-116334174D01*
X139230925Y-116207007D01*
X139198012Y-116150000D01*
X140095636Y-116150000D01*
X140095635Y-116149999D01*
X140038432Y-115936513D01*
X140038429Y-115936507D01*
X139938600Y-115722422D01*
X139938599Y-115722420D01*
X139803113Y-115528926D01*
X139803108Y-115528920D01*
X139636082Y-115361894D01*
X139442578Y-115226399D01*
X139228492Y-115126570D01*
X139228486Y-115126567D01*
X139015000Y-115069364D01*
X139015000Y-115966988D01*
X138957993Y-115934075D01*
X138830826Y-115900000D01*
X138699174Y-115900000D01*
X138572007Y-115934075D01*
X138515000Y-115966988D01*
X138515000Y-115069364D01*
X138514999Y-115069364D01*
X138301513Y-115126567D01*
X138301507Y-115126570D01*
X138087422Y-115226399D01*
X138087420Y-115226400D01*
X137893926Y-115361886D01*
X137771865Y-115483947D01*
X137710542Y-115517431D01*
X137640850Y-115512447D01*
X137584917Y-115470575D01*
X137568002Y-115439598D01*
X137553233Y-115400001D01*
X137518796Y-115307669D01*
X137518795Y-115307668D01*
X137518793Y-115307664D01*
X137432547Y-115192455D01*
X137432544Y-115192452D01*
X137317335Y-115106206D01*
X137317328Y-115106202D01*
X137182482Y-115055908D01*
X137182483Y-115055908D01*
X137122883Y-115049501D01*
X137122881Y-115049500D01*
X137122873Y-115049500D01*
X137122864Y-115049500D01*
X135327129Y-115049500D01*
X135327123Y-115049501D01*
X135267516Y-115055908D01*
X135132671Y-115106202D01*
X135132664Y-115106206D01*
X135017455Y-115192452D01*
X135017452Y-115192455D01*
X134931206Y-115307664D01*
X134931202Y-115307671D01*
X134880908Y-115442517D01*
X134874501Y-115502116D01*
X134874500Y-115502135D01*
X134874500Y-115675500D01*
X134854815Y-115742539D01*
X134802011Y-115788294D01*
X134750500Y-115799500D01*
X133579057Y-115799500D01*
X133420943Y-115799500D01*
X133268215Y-115840423D01*
X133268214Y-115840423D01*
X133268212Y-115840424D01*
X133268209Y-115840425D01*
X133218096Y-115869359D01*
X133218095Y-115869360D01*
X133174689Y-115894420D01*
X133131285Y-115919479D01*
X133131282Y-115919481D01*
X133019478Y-116031286D01*
X132247584Y-116803181D01*
X132186261Y-116836666D01*
X132159903Y-116839500D01*
X131431692Y-116839500D01*
X131364653Y-116819815D01*
X131330119Y-116786625D01*
X131204728Y-116607546D01*
X131200045Y-116600858D01*
X131039141Y-116439954D01*
X130852734Y-116309432D01*
X130852728Y-116309429D01*
X130794725Y-116282382D01*
X130742285Y-116236210D01*
X130723133Y-116169017D01*
X130743348Y-116102135D01*
X130794725Y-116057618D01*
X130852734Y-116030568D01*
X131039139Y-115900047D01*
X131200047Y-115739139D01*
X131330568Y-115552734D01*
X131426739Y-115346496D01*
X131485635Y-115126692D01*
X131505468Y-114900000D01*
X131500972Y-114848609D01*
X131500500Y-114837802D01*
X131500500Y-114725943D01*
X131500500Y-114725942D01*
X131459576Y-114573215D01*
X131459574Y-114573212D01*
X131458926Y-114570792D01*
X131455317Y-114560162D01*
X131426742Y-114453513D01*
X131426738Y-114453502D01*
X131401768Y-114399954D01*
X131330568Y-114247266D01*
X131231795Y-114106202D01*
X131200045Y-114060858D01*
X131039140Y-113899953D01*
X130853377Y-113769881D01*
X130809752Y-113715304D01*
X130800500Y-113668306D01*
X130800500Y-112111258D01*
X130820185Y-112044219D01*
X130872989Y-111998464D01*
X130942147Y-111988520D01*
X130994271Y-112009679D01*
X130994495Y-112009314D01*
X130996699Y-112010664D01*
X130997397Y-112010948D01*
X130998653Y-112011861D01*
X131180968Y-112104755D01*
X131375582Y-112167990D01*
X131577683Y-112200000D01*
X131830000Y-112200000D01*
X131830000Y-111215686D01*
X131834394Y-111220080D01*
X131925606Y-111272741D01*
X132027339Y-111300000D01*
X132132661Y-111300000D01*
X132234394Y-111272741D01*
X132325606Y-111220080D01*
X132330000Y-111215686D01*
X132330000Y-112200000D01*
X132582317Y-112200000D01*
X132784417Y-112167990D01*
X132979031Y-112104755D01*
X133161349Y-112011859D01*
X133326894Y-111891582D01*
X133326895Y-111891582D01*
X133471582Y-111746895D01*
X133471582Y-111746894D01*
X133591859Y-111581349D01*
X133684755Y-111399029D01*
X133747990Y-111204413D01*
X133756609Y-111150000D01*
X132395686Y-111150000D01*
X132400080Y-111145606D01*
X132452741Y-111054394D01*
X132480000Y-110952661D01*
X132480000Y-110847339D01*
X132452741Y-110745606D01*
X132400080Y-110654394D01*
X132395686Y-110650000D01*
X133756609Y-110650000D01*
X133747990Y-110595586D01*
X133684755Y-110400970D01*
X133591859Y-110218650D01*
X133471582Y-110053105D01*
X133471582Y-110053104D01*
X133326895Y-109908417D01*
X133161349Y-109788140D01*
X133068370Y-109740765D01*
X133017574Y-109692790D01*
X133000779Y-109624969D01*
X133023316Y-109558835D01*
X133068370Y-109519795D01*
X133068920Y-109519515D01*
X133161610Y-109472287D01*
X133261041Y-109400047D01*
X133327213Y-109351971D01*
X133327215Y-109351968D01*
X133327219Y-109351966D01*
X133471966Y-109207219D01*
X133471968Y-109207215D01*
X133471971Y-109207213D01*
X133588608Y-109046674D01*
X133592287Y-109041610D01*
X133599117Y-109028204D01*
X133647091Y-108977409D01*
X133709602Y-108960500D01*
X134759903Y-108960500D01*
X134826942Y-108980185D01*
X134847584Y-108996819D01*
X135363181Y-109512416D01*
X135396666Y-109573739D01*
X135399500Y-109600097D01*
X135399500Y-112379056D01*
X135408463Y-112412507D01*
X135411322Y-112434226D01*
X135411627Y-112434186D01*
X135412687Y-112442243D01*
X135412688Y-112442246D01*
X135453612Y-112594974D01*
X135532670Y-112731905D01*
X136881284Y-114080519D01*
X137018215Y-114159577D01*
X137170943Y-114200501D01*
X137170946Y-114200501D01*
X137336653Y-114200501D01*
X137336669Y-114200500D01*
X140999903Y-114200500D01*
X141066942Y-114220185D01*
X141087584Y-114236819D01*
X141808058Y-114957293D01*
X141841543Y-115018616D01*
X141840152Y-115077067D01*
X141814366Y-115173302D01*
X141814364Y-115173313D01*
X141794532Y-115399998D01*
X141794532Y-115400001D01*
X141814364Y-115626686D01*
X141814366Y-115626697D01*
X141873258Y-115846488D01*
X141873261Y-115846497D01*
X141969431Y-116052732D01*
X141969432Y-116052734D01*
X142099954Y-116239141D01*
X142260858Y-116400045D01*
X142260861Y-116400047D01*
X142447266Y-116530568D01*
X142505275Y-116557618D01*
X142557714Y-116603791D01*
X142576866Y-116670984D01*
X142556650Y-116737865D01*
X142505275Y-116782381D01*
X142496180Y-116786623D01*
X142447267Y-116809431D01*
X142447265Y-116809432D01*
X142260858Y-116939954D01*
X142099954Y-117100858D01*
X141969432Y-117287265D01*
X141969431Y-117287267D01*
X141873261Y-117493502D01*
X141873258Y-117493511D01*
X141814366Y-117713302D01*
X141814364Y-117713313D01*
X141794532Y-117939998D01*
X141794532Y-117940001D01*
X141814364Y-118166686D01*
X141814366Y-118166697D01*
X141873258Y-118386488D01*
X141873261Y-118386497D01*
X141969431Y-118592732D01*
X141969432Y-118592734D01*
X142099954Y-118779141D01*
X142260858Y-118940045D01*
X142260861Y-118940047D01*
X142447266Y-119070568D01*
X142653504Y-119166739D01*
X142873308Y-119225635D01*
X143035230Y-119239801D01*
X143099998Y-119245468D01*
X143100000Y-119245468D01*
X143100002Y-119245468D01*
X143156673Y-119240509D01*
X143326692Y-119225635D01*
X143546496Y-119166739D01*
X143752734Y-119070568D01*
X143939139Y-118940047D01*
X144100047Y-118779139D01*
X144230118Y-118593375D01*
X144284693Y-118549752D01*
X144331692Y-118540500D01*
X145173331Y-118540500D01*
X145173347Y-118540501D01*
X145180943Y-118540501D01*
X145339054Y-118540501D01*
X145339057Y-118540501D01*
X145491785Y-118499577D01*
X145541904Y-118470639D01*
X145628716Y-118420520D01*
X145740520Y-118308716D01*
X145740520Y-118308714D01*
X145750728Y-118298507D01*
X145750730Y-118298504D01*
X146290573Y-117758660D01*
X146351894Y-117725177D01*
X146421586Y-117730161D01*
X146477519Y-117772033D01*
X146501936Y-117837497D01*
X146501780Y-117857150D01*
X146494532Y-117939997D01*
X146494532Y-117940001D01*
X146514364Y-118166686D01*
X146514366Y-118166697D01*
X146573258Y-118386488D01*
X146573261Y-118386497D01*
X146669431Y-118592732D01*
X146669432Y-118592734D01*
X146799954Y-118779141D01*
X146960858Y-118940045D01*
X146960861Y-118940047D01*
X147147266Y-119070568D01*
X147353504Y-119166739D01*
X147573308Y-119225635D01*
X147735230Y-119239801D01*
X147799998Y-119245468D01*
X147800000Y-119245468D01*
X147800002Y-119245468D01*
X147856673Y-119240509D01*
X148026692Y-119225635D01*
X148246496Y-119166739D01*
X148452734Y-119070568D01*
X148639139Y-118940047D01*
X148800047Y-118779139D01*
X148930118Y-118593375D01*
X148984693Y-118549752D01*
X149031692Y-118540500D01*
X152010909Y-118540500D01*
X152077948Y-118560185D01*
X152123292Y-118612097D01*
X152125965Y-118617830D01*
X152261505Y-118811401D01*
X152428599Y-118978495D01*
X152525384Y-119046265D01*
X152622165Y-119114032D01*
X152622167Y-119114033D01*
X152622170Y-119114035D01*
X152836337Y-119213903D01*
X152836343Y-119213904D01*
X152836344Y-119213905D01*
X152992421Y-119255725D01*
X153052082Y-119292090D01*
X153082611Y-119354936D01*
X153074317Y-119424312D01*
X153029832Y-119478190D01*
X152963280Y-119499465D01*
X152960328Y-119499500D01*
X127124000Y-119499500D01*
X127056961Y-119479815D01*
X127011206Y-119427011D01*
X127000000Y-119375500D01*
X127000000Y-113000000D01*
X120624500Y-113000000D01*
X120557461Y-112980315D01*
X120511706Y-112927511D01*
X120500500Y-112876000D01*
X120500500Y-89202135D01*
X121249500Y-89202135D01*
X121249500Y-90997870D01*
X121249501Y-90997876D01*
X121255908Y-91057483D01*
X121306202Y-91192328D01*
X121306206Y-91192335D01*
X121392452Y-91307544D01*
X121392455Y-91307547D01*
X121507664Y-91393793D01*
X121507671Y-91393797D01*
X121525643Y-91400500D01*
X121639598Y-91443002D01*
X121695531Y-91484873D01*
X121719949Y-91550337D01*
X121705098Y-91618610D01*
X121683947Y-91646865D01*
X121561886Y-91768926D01*
X121426400Y-91962420D01*
X121426399Y-91962422D01*
X121326570Y-92176507D01*
X121326567Y-92176513D01*
X121269364Y-92389999D01*
X121269364Y-92390000D01*
X122166988Y-92390000D01*
X122134075Y-92447007D01*
X122100000Y-92574174D01*
X122100000Y-92705826D01*
X122134075Y-92832993D01*
X122166988Y-92890000D01*
X121269364Y-92890000D01*
X121326567Y-93103486D01*
X121326570Y-93103492D01*
X121426399Y-93317578D01*
X121561894Y-93511082D01*
X121728917Y-93678105D01*
X121922421Y-93813600D01*
X122136507Y-93913429D01*
X122136516Y-93913433D01*
X122350000Y-93970634D01*
X122350000Y-93073012D01*
X122407007Y-93105925D01*
X122534174Y-93140000D01*
X122665826Y-93140000D01*
X122792993Y-93105925D01*
X122850000Y-93073012D01*
X122850000Y-93970633D01*
X123063483Y-93913433D01*
X123063492Y-93913429D01*
X123277578Y-93813600D01*
X123471082Y-93678105D01*
X123638105Y-93511082D01*
X123773600Y-93317578D01*
X123873429Y-93103492D01*
X123873432Y-93103486D01*
X123930636Y-92890000D01*
X123033012Y-92890000D01*
X123065925Y-92832993D01*
X123100000Y-92705826D01*
X123100000Y-92574174D01*
X123065925Y-92447007D01*
X123033012Y-92390000D01*
X123930636Y-92390000D01*
X123930635Y-92389999D01*
X123873432Y-92176513D01*
X123873429Y-92176507D01*
X123837752Y-92099997D01*
X126295034Y-92099997D01*
X126295034Y-92100002D01*
X126314858Y-92326599D01*
X126314860Y-92326610D01*
X126373730Y-92546317D01*
X126373735Y-92546331D01*
X126469863Y-92752478D01*
X126520974Y-92825472D01*
X127200000Y-92146446D01*
X127200000Y-92152661D01*
X127227259Y-92254394D01*
X127279920Y-92345606D01*
X127354394Y-92420080D01*
X127445606Y-92472741D01*
X127547339Y-92500000D01*
X127553553Y-92500000D01*
X126874526Y-93179025D01*
X126947513Y-93230132D01*
X126947521Y-93230136D01*
X127153668Y-93326264D01*
X127153682Y-93326269D01*
X127373389Y-93385139D01*
X127373400Y-93385141D01*
X127599998Y-93404966D01*
X127600002Y-93404966D01*
X127826599Y-93385141D01*
X127826610Y-93385139D01*
X128046317Y-93326269D01*
X128046331Y-93326264D01*
X128252478Y-93230136D01*
X128325471Y-93179024D01*
X127646447Y-92500000D01*
X127652661Y-92500000D01*
X127754394Y-92472741D01*
X127845606Y-92420080D01*
X127920080Y-92345606D01*
X127972741Y-92254394D01*
X128000000Y-92152661D01*
X128000000Y-92146447D01*
X128679024Y-92825471D01*
X128730136Y-92752478D01*
X128826264Y-92546331D01*
X128826269Y-92546317D01*
X128885139Y-92326610D01*
X128885141Y-92326599D01*
X128904966Y-92100002D01*
X128904966Y-92099997D01*
X128885141Y-91873400D01*
X128885139Y-91873389D01*
X128826269Y-91653682D01*
X128826265Y-91653673D01*
X128730134Y-91447518D01*
X128730130Y-91447512D01*
X128721188Y-91434740D01*
X128698861Y-91368534D01*
X128715873Y-91300767D01*
X128748454Y-91264351D01*
X128757546Y-91257546D01*
X128843796Y-91142331D01*
X128894091Y-91007483D01*
X128900500Y-90947873D01*
X128900499Y-89252128D01*
X128894091Y-89192517D01*
X128893997Y-89192266D01*
X128843797Y-89057671D01*
X128843793Y-89057664D01*
X128757547Y-88942455D01*
X128757544Y-88942452D01*
X128642335Y-88856206D01*
X128642328Y-88856202D01*
X128507482Y-88805908D01*
X128507483Y-88805908D01*
X128447883Y-88799501D01*
X128447881Y-88799500D01*
X128447873Y-88799500D01*
X128447864Y-88799500D01*
X126752129Y-88799500D01*
X126752123Y-88799501D01*
X126692516Y-88805908D01*
X126557671Y-88856202D01*
X126557664Y-88856206D01*
X126442455Y-88942452D01*
X126442452Y-88942455D01*
X126356206Y-89057664D01*
X126356202Y-89057671D01*
X126305908Y-89192517D01*
X126300977Y-89238386D01*
X126299501Y-89252123D01*
X126299500Y-89252135D01*
X126299500Y-90947870D01*
X126299501Y-90947876D01*
X126305908Y-91007483D01*
X126356202Y-91142328D01*
X126356206Y-91142335D01*
X126442452Y-91257544D01*
X126442453Y-91257544D01*
X126442454Y-91257546D01*
X126451545Y-91264351D01*
X126493416Y-91320282D01*
X126498402Y-91389974D01*
X126478813Y-91434736D01*
X126469871Y-91447507D01*
X126469868Y-91447512D01*
X126373734Y-91653673D01*
X126373730Y-91653682D01*
X126314860Y-91873389D01*
X126314858Y-91873400D01*
X126295034Y-92099997D01*
X123837752Y-92099997D01*
X123773600Y-91962422D01*
X123773599Y-91962420D01*
X123638113Y-91768926D01*
X123638108Y-91768920D01*
X123516053Y-91646865D01*
X123482568Y-91585542D01*
X123487552Y-91515850D01*
X123529424Y-91459917D01*
X123560400Y-91443002D01*
X123674357Y-91400500D01*
X123692326Y-91393798D01*
X123692326Y-91393797D01*
X123692331Y-91393796D01*
X123807546Y-91307546D01*
X123893796Y-91192331D01*
X123944091Y-91057483D01*
X123950500Y-90997873D01*
X123950499Y-89202128D01*
X123944091Y-89142517D01*
X123893796Y-89007669D01*
X123893795Y-89007668D01*
X123893793Y-89007664D01*
X123807547Y-88892455D01*
X123807544Y-88892452D01*
X123692335Y-88806206D01*
X123692328Y-88806202D01*
X123557482Y-88755908D01*
X123557483Y-88755908D01*
X123497883Y-88749501D01*
X123497881Y-88749500D01*
X123497873Y-88749500D01*
X123497864Y-88749500D01*
X121702129Y-88749500D01*
X121702123Y-88749501D01*
X121642516Y-88755908D01*
X121507671Y-88806202D01*
X121507664Y-88806206D01*
X121392455Y-88892452D01*
X121392452Y-88892455D01*
X121306206Y-89007664D01*
X121306202Y-89007671D01*
X121255908Y-89142517D01*
X121250560Y-89192265D01*
X121249501Y-89202123D01*
X121249500Y-89202135D01*
X120500500Y-89202135D01*
X120500500Y-87124000D01*
X120520185Y-87056961D01*
X120572989Y-87011206D01*
X120624500Y-87000000D01*
X127000000Y-87000000D01*
X127000000Y-80624500D01*
X127019685Y-80557461D01*
X127072489Y-80511706D01*
X127124000Y-80500500D01*
X160395248Y-80500500D01*
X160462287Y-80520185D01*
G37*
%TD.AperFunction*%
%TD*%
M02*
